<?xml version="1.0" encoding="UTF-8"?>
<svg version="1.1" xmlns="http://www.w3.org/2000/svg" width="774" height="800">
<path d="M0 0 C1.03088363 -0.00235223 2.06176725 -0.00470446 3.12388977 -0.00712797 C6.60074478 -0.01381938 10.07756242 -0.0133597 13.55442333 -0.01294994 C16.06346433 -0.01624849 18.57250479 -0.01997403 21.08154458 -0.02409142 C27.26864782 -0.03306795 33.45573987 -0.03733928 39.64284873 -0.03961039 C47.05287063 -0.04257282 54.46288304 -0.05127056 61.87289995 -0.06002467 C79.78534973 -0.08086987 97.69780116 -0.09133952 115.61026024 -0.10015428 C124.08572183 -0.10436123 132.56118271 -0.1095832 141.03664371 -0.11483881 C170.05339123 -0.13273028 199.07013896 -0.14772539 228.08689117 -0.155159 C229.90865104 -0.15563375 231.7304109 -0.15610964 233.55217076 -0.15658666 C234.90730746 -0.15694122 234.90730746 -0.15694122 236.28982065 -0.15730295 C240.86696909 -0.15850414 245.44411754 -0.15971959 250.02126598 -0.16094494 C250.92961345 -0.16118509 251.83796092 -0.16142524 252.77383406 -0.16167267 C282.2147054 -0.16956296 311.65553642 -0.19298856 341.09639016 -0.22550088 C372.22782519 -0.25981733 403.35923663 -0.27951188 434.49069089 -0.28280324 C437.90995738 -0.28322077 441.32922386 -0.28370033 444.74849033 -0.28422642 C445.59040086 -0.28434961 446.43231138 -0.2844728 447.29973434 -0.28459973 C460.83562107 -0.28692964 474.37146089 -0.30257813 487.90733092 -0.32306826 C501.52089336 -0.34334857 515.13439962 -0.34879317 528.74797437 -0.33929763 C536.82978264 -0.33409103 544.91140351 -0.33992021 552.99318472 -0.3618323 C559.03754056 -0.37697777 565.0816872 -0.37106769 571.12605383 -0.35716178 C573.56426494 -0.35478423 576.00249421 -0.35911682 578.44067756 -0.37099043 C605.62288969 -0.49512145 627.92343375 5.20002632 648.29738903 24.36859608 C662.93256384 39.90338433 669.07164712 58.85711913 669.03428555 79.85506916 C669.0373645 81.46608698 669.0373645 81.46608698 669.04050565 83.10965061 C669.04617588 86.72116443 669.04471836 90.33264011 669.04329967 93.9441576 C669.0458833 96.55463247 669.04889645 99.16510695 669.05230308 101.77558088 C669.05987494 108.20577951 669.06207572 114.63596984 669.06263213 121.06617246 C669.06354658 128.76871296 669.07021654 136.4712458 669.07697896 144.173783 C669.0930332 162.79020421 669.09894162 181.4066246 669.1037277 200.02305149 C669.10606427 208.83151475 669.10966699 217.63997735 669.11342308 226.4484401 C669.1262582 256.60628053 669.13697732 286.76412059 669.14042568 316.92196369 C669.14064731 318.8148387 669.1408691 320.7077137 669.14109103 322.60058871 C669.14131167 324.49801137 669.14153216 326.39543403 669.14175248 328.29285669 C669.14219503 332.09935315 669.14264215 335.90584962 669.14309216 339.71234608 C669.14320155 340.65613475 669.14331094 341.59992343 669.14342364 342.57231177 C669.14705382 373.17084183 669.1629726 403.7693482 669.18628252 434.36786919 C669.21088739 466.72547824 669.22459883 499.08307375 669.2257936 531.44069242 C669.22596505 534.99387487 669.22618048 538.54705731 669.22642803 542.10023975 C669.2264838 542.97512031 669.22653957 543.85000087 669.22659703 544.75139296 C669.22774691 558.82108113 669.23876359 572.89074495 669.25331509 586.96042491 C669.26769286 601.1069387 669.27090984 615.25342133 669.26287511 629.39994043 C669.25842487 637.79965097 669.26225517 646.1992608 669.27811362 654.59895807 C669.28903776 660.87809495 669.28420359 667.15712846 669.27334175 673.43626338 C669.2713834 675.97129889 669.2744695 678.50634452 669.28318611 681.0413658 C669.36888473 707.65553345 665.67884682 729.33938271 646.69973278 749.49750233 C626.13946015 768.88044091 601.75696641 772.90577517 574.58791637 772.76913929 C572.06892555 772.77491055 569.54993895 772.78285836 567.03096104 772.79277551 C561.58541496 772.8092165 556.1402088 772.81036763 550.69465923 772.79753971 C542.59661169 772.77851584 534.49877127 772.78835327 526.40072483 772.80358125 C511.93216666 772.82982865 497.4637193 772.82766057 482.99515074 772.81318668 C470.33308797 772.80058296 457.67106568 772.79733745 445.00899792 772.8032999 C444.1673898 772.80368183 443.32578169 772.80406375 442.4586703 772.80445725 C439.04186097 772.80601408 435.62505166 772.80760609 432.20824238 772.80925607 C400.19003919 772.82453317 368.17190635 772.81071223 336.15371403 772.78377159 C307.73997947 772.76004554 279.32635698 772.76216876 250.91262341 772.78607655 C218.95103329 772.81288 186.98950526 772.8234495 155.02790546 772.80801523 C151.61750954 772.80641177 148.2071136 772.80484756 144.79671764 772.8032999 C143.95706039 772.80290452 143.11740315 772.80250913 142.25230174 772.80210176 C129.60168467 772.79642689 116.95111265 772.80304241 104.30050182 772.81569767 C89.90864027 772.8300235 75.51690631 772.82635711 61.12506056 772.79929395 C53.08155852 772.78466534 45.03833316 772.783577 36.99483859 772.80252482 C30.9742127 772.81513706 24.95394113 772.80135491 18.9333365 772.77765195 C16.50895689 772.77209746 14.08453994 772.77483856 11.66018462 772.78703089 C-12.18110726 772.89767117 -33.48967291 769.17139793 -52.09714222 753.13422108 C-52.75972034 752.61472889 -53.42229847 752.0952367 -54.10495472 751.56000233 C-68.21907173 740.13033502 -76.409171 723.04483047 -78.8848823 705.25715083 C-79.31191177 700.98619112 -79.23620002 696.70160649 -79.22856998 692.41337299 C-79.23062262 691.33936111 -79.23267525 690.26534924 -79.23479009 689.15879154 C-79.24046032 685.54727773 -79.2390028 681.93580204 -79.23758411 678.32428455 C-79.24016774 675.71380968 -79.24318089 673.1033352 -79.24658751 670.49286127 C-79.25415938 664.06266264 -79.25636016 657.63247232 -79.25691657 651.20226969 C-79.25783102 643.49972919 -79.26450097 635.79719636 -79.27126339 628.09465916 C-79.28731763 609.47823794 -79.29322606 590.86181756 -79.29801214 572.24539066 C-79.30034871 563.43692741 -79.30395143 554.6284648 -79.30770752 545.82000205 C-79.32054263 515.66216163 -79.33126176 485.50432156 -79.33471012 455.34647846 C-79.33493175 453.45360346 -79.33515354 451.56072845 -79.33537547 449.66785344 C-79.33559611 447.77043078 -79.33581659 445.87300812 -79.33603692 443.97558546 C-79.33647947 440.169089 -79.33692659 436.36259254 -79.33737659 432.55609608 C-79.33748599 431.6123074 -79.33759538 430.66851872 -79.33770808 429.69613039 C-79.34133826 399.09760032 -79.35725704 368.49909395 -79.38056696 337.90057296 C-79.40517183 305.54296391 -79.41888327 273.18536841 -79.42007804 240.82774973 C-79.42024949 237.27456728 -79.42046492 233.72138484 -79.42071247 230.1682024 C-79.42076824 229.29332184 -79.42082401 228.41844129 -79.42088147 227.5170492 C-79.42203135 213.44736102 -79.43304803 199.3776972 -79.44759953 185.30801725 C-79.4619773 171.16150345 -79.46519428 157.01502082 -79.45715955 142.86850172 C-79.45270931 134.46879119 -79.45653961 126.06918136 -79.47239805 117.66948409 C-79.4833222 111.3903472 -79.47848802 105.11131369 -79.46762618 98.83217877 C-79.46566784 96.29714326 -79.46875394 93.76209763 -79.47747055 91.22707635 C-79.56316917 64.61290871 -75.87313126 42.92905944 -56.89401722 22.77093983 C-45.05801308 11.6126957 -30.77227167 4.95026383 -15.09714222 1.13422108 C-14.07522202 0.86730787 -14.07522202 0.86730787 -13.03265697 0.59500247 C-8.68930058 -0.08676478 -4.3900367 -0.00677789 0 0 Z " fill="#664AB4" transform="translate(92.09714221954346,13.865778923034668)"/>
<path d="M0 0 C1.29266202 -0.00173077 1.29266202 -0.00173077 2.61143842 -0.0034965 C5.51288061 -0.00615339 8.41426783 -0.00164858 11.31570721 0.00279331 C13.4112964 0.00235742 15.50688554 0.00148218 17.60247439 0.00020415 C23.37178249 -0.0020373 29.14107211 0.00197572 34.91037786 0.00698221 C41.12779864 0.01129151 47.34521834 0.00983994 53.56264019 0.00907993 C64.33834227 0.008555 75.1140369 0.01166374 85.88973713 0.01731777 C97.19229759 0.02323306 108.49485564 0.02708337 119.79741764 0.02817059 C120.49995176 0.02823933 121.20248588 0.02830806 121.92630891 0.02837889 C125.49406689 0.02871722 129.06182486 0.0290186 132.62958284 0.02930576 C157.90563046 0.03140665 183.18167492 0.03814535 208.45772076 0.04760838 C233.01436121 0.05679146 257.5710008 0.06387574 282.12764263 0.06811619 C282.88447135 0.06824771 283.64130006 0.06837924 284.42106298 0.06851475 C292.02138864 0.06983326 299.6217143 0.07110908 307.22203997 0.07235361 C322.70503448 0.07488988 338.18802894 0.07771114 353.67102337 0.08070469 C354.73886802 0.08091062 354.73886802 0.08091062 355.82828529 0.08112072 C403.37444285 0.09032271 450.92059856 0.10618885 498.46675396 0.12304783 C498.46675396 1.77304783 498.46675396 3.42304783 498.46675396 5.12304783 C500.94175396 5.61804783 500.94175396 5.61804783 503.46675396 6.12304783 C502.80675396 7.44304783 502.14675396 8.76304783 501.46675396 10.12304783 C501.46675396 9.46304783 501.46675396 8.80304783 501.46675396 8.12304783 C498.49675396 9.11304783 498.49675396 9.11304783 495.46675396 10.12304783 C495.34175396 4.37304783 495.34175396 4.37304783 496.46675396 2.12304783 C495.80675396 2.45304783 495.14675396 2.78304783 494.46675396 3.12304783 C493.81120277 5.65038018 493.81120277 5.65038018 493.46675396 8.12304783 C492.47675396 7.79304783 491.48675396 7.46304783 490.46675396 7.12304783 C490.13675396 6.13304783 489.80675396 5.14304783 489.46675396 4.12304783 C488.80675396 5.44304783 488.14675396 6.76304783 487.46675396 8.12304783 C486.80675396 8.12304783 486.14675396 8.12304783 485.46675396 8.12304783 C485.46675396 6.47304783 485.46675396 4.82304783 485.46675396 3.12304783 C482.34890283 3.76949444 482.34890283 3.76949444 481.46675396 6.12304783 C482.12675396 6.45304783 482.78675396 6.78304783 483.46675396 7.12304783 C483.79675396 8.11304783 484.12675396 9.10304783 484.46675396 10.12304783 C487.78766398 11.82838 489.6516818 12.12304783 493.46675396 12.12304783 C493.46675396 12.78304783 493.46675396 13.44304783 493.46675396 14.12304783 C491.98175396 14.61804783 491.98175396 14.61804783 490.46675396 15.12304783 C490.13675396 16.77304783 489.80675396 18.42304783 489.46675396 20.12304783 C490.78675396 20.45304783 492.10675396 20.78304783 493.46675396 21.12304783 C491.81675396 22.44304783 490.16675396 23.76304783 488.46675396 25.12304783 C486.567903 23.22419687 487.3430789 20.5505688 487.33394146 18.03320408 C487.46675396 16.12304783 487.46675396 16.12304783 488.46675396 14.12304783 C486.01450702 14.22918619 486.01450702 14.22918619 483.46675396 15.12304783 C482.09208771 17.59940795 482.09208771 17.59940795 481.46675396 20.12304783 C480.14675396 20.12304783 478.82675396 20.12304783 477.46675396 20.12304783 C477.13675396 21.11304783 476.80675396 22.10304783 476.46675396 23.12304783 C476.13675396 22.13304783 475.80675396 21.14304783 475.46675396 20.12304783 C472.49675396 21.60804783 472.49675396 21.60804783 469.46675396 23.12304783 C469.13675396 22.46304783 468.80675396 21.80304783 468.46675396 21.12304783 C467.80675396 21.78304783 467.14675396 22.44304783 466.46675396 23.12304783 C467.45675396 23.45304783 468.44675396 23.78304783 469.46675396 24.12304783 C469.46675396 24.78304783 469.46675396 25.44304783 469.46675396 26.12304783 C470.12675396 26.12304783 470.78675396 26.12304783 471.46675396 26.12304783 C470.71675396 30.87304783 470.71675396 30.87304783 468.46675396 33.12304783 C466.79832862 32.79863179 465.13194915 32.46365593 463.46675396 32.12304783 C460.06019479 32.54017752 456.77893035 33.23130803 453.46675396 34.12304783 C453.13675396 33.13304783 452.80675396 32.14304783 452.46675396 31.12304783 C451.80675396 32.77304783 451.14675396 34.42304783 450.46675396 36.12304783 C452.11675396 36.12304783 453.76675396 36.12304783 455.46675396 36.12304783 C455.13675396 37.77304783 454.80675396 39.42304783 454.46675396 41.12304783 C452.15675396 41.78304783 449.84675396 42.44304783 447.46675396 43.12304783 C449.11751136 43.6733003 450.77865645 44.20102345 452.46675396 44.62304783 C454.15485147 45.04507221 455.81599656 45.57279536 457.46675396 46.12304783 C457.46675396 44.47304783 457.46675396 42.82304783 457.46675396 41.12304783 C458.78675396 40.46304783 460.10675396 39.80304783 461.46675396 39.12304783 C460.95803102 41.15793957 460.45021042 43.17764152 459.84175396 45.18554783 C459.26259332 47.32846035 459.26259332 47.32846035 460.46675396 50.12304783 C458.98175396 51.60804783 458.98175396 51.60804783 457.46675396 53.12304783 C458.18862896 52.95804783 458.91050396 52.79304783 459.65425396 52.62304783 C462.33102941 52.14717664 464.75624883 52.04560483 467.46675396 52.12304783 C467.46675396 53.11304783 467.46675396 54.10304783 467.46675396 55.12304783 C465.46675396 56.81054783 465.46675396 56.81054783 463.46675396 58.12304783 C463.46675396 56.80304783 463.46675396 55.48304783 463.46675396 54.12304783 C461.81675396 54.45304783 460.16675396 54.78304783 458.46675396 55.12304783 C458.13675396 56.11304783 457.80675396 57.10304783 457.46675396 58.12304783 C456.80675396 57.79304783 456.14675396 57.46304783 455.46675396 57.12304783 C455.05946168 54.80148186 454.72236719 52.46616913 454.46675396 50.12304783 C455.45675396 50.12304783 456.44675396 50.12304783 457.46675396 50.12304783 C457.46675396 49.13304783 457.46675396 48.14304783 457.46675396 47.12304783 C454.97122912 47.90434854 454.97122912 47.90434854 452.46675396 49.12304783 C452.13675396 50.11304783 451.80675396 51.10304783 451.46675396 52.12304783 C450.14675396 51.79304783 448.82675396 51.46304783 447.46675396 51.12304783 C448.12675396 50.46304783 448.78675396 49.80304783 449.46675396 49.12304783 C448.80675396 48.79304783 448.14675396 48.46304783 447.46675396 48.12304783 C447.46675396 47.46304783 447.46675396 46.80304783 447.46675396 46.12304783 C446.41487896 46.82429783 445.36300396 47.52554783 444.27925396 48.24804783 C440.87459667 50.22717788 440.87459667 50.22717788 437.52925396 49.37304783 C436.84862896 48.96054783 436.16800396 48.54804783 435.46675396 48.12304783 C435.46675396 46.80304783 435.46675396 45.48304783 435.46675396 44.12304783 C433.75835115 45.75717226 432.53222349 46.99210877 431.46675396 49.12304783 C433.44675396 49.45304783 435.42675396 49.78304783 437.46675396 50.12304783 C436.94592063 52.10872491 436.42508729 54.094402 435.90425396 56.08007908 C435.36205326 58.26374792 435.36205326 58.26374792 435.46675396 61.12304783 C434.80675396 61.12304783 434.14675396 61.12304783 433.46675396 61.12304783 C431.48675396 56.66804783 431.48675396 56.66804783 429.46675396 52.12304783 C427.81675396 52.45304783 426.16675396 52.78304783 424.46675396 53.12304783 C424.13675396 54.11304783 423.80675396 55.10304783 423.46675396 56.12304783 C425.44675396 56.45304783 427.42675396 56.78304783 429.46675396 57.12304783 C429.46675396 58.11304783 429.46675396 59.10304783 429.46675396 60.12304783 C430.12675396 60.12304783 430.78675396 60.12304783 431.46675396 60.12304783 C431.46675396 61.44304783 431.46675396 62.76304783 431.46675396 64.12304783 C427.77257195 65.35444183 425.26112786 64.76737547 421.46675396 64.12304783 C421.46675396 63.46304783 421.46675396 62.80304783 421.46675396 62.12304783 C420.80675396 62.12304783 420.14675396 62.12304783 419.46675396 62.12304783 C419.46675396 63.11304783 419.46675396 64.10304783 419.46675396 65.12304783 C421.44675396 65.45304783 423.42675396 65.78304783 425.46675396 66.12304783 C425.46675396 66.78304783 425.46675396 67.44304783 425.46675396 68.12304783 C423.48675396 68.78304783 421.50675396 69.44304783 419.46675396 70.12304783 C418.47675396 69.13304783 417.48675396 68.14304783 416.46675396 67.12304783 C414.48675396 68.11304783 414.48675396 68.11304783 412.46675396 69.12304783 C412.79675396 71.76304783 413.12675396 74.40304783 413.46675396 77.12304783 C412.80675396 77.45304783 412.14675396 77.78304783 411.46675396 78.12304783 C411.46675396 77.46304783 411.46675396 76.80304783 411.46675396 76.12304783 C408.68757924 77.14207856 407.62696076 77.85360911 406.09175396 80.43554783 C405.32957827 83.71290331 405.95287036 85.17938528 407.46675396 88.12304783 C404.09375652 89.27310874 402.11822181 88.97504736 398.77925396 87.81054783 C397.99163677 87.54629002 397.20401958 87.2820322 396.39253521 87.00976658 C394.46675396 86.12304783 394.46675396 86.12304783 393.46675396 84.12304783 C390.34890283 84.76949444 390.34890283 84.76949444 389.46675396 87.12304783 C390.78675396 86.79304783 392.10675396 86.46304783 393.46675396 86.12304783 C393.46675396 86.78304783 393.46675396 87.44304783 393.46675396 88.12304783 C395.77675396 88.78304783 398.08675396 89.44304783 400.46675396 90.12304783 C400.13675396 90.78304783 399.80675396 91.44304783 399.46675396 92.12304783 C397.81675396 91.79304783 396.16675396 91.46304783 394.46675396 91.12304783 C394.13675396 92.11304783 393.80675396 93.10304783 393.46675396 94.12304783 C391.98175396 95.11304783 391.98175396 95.11304783 390.46675396 96.12304783 C389.74292929 98.18229922 389.74292929 98.18229922 389.46675396 100.12304783 C388.47675396 99.79304783 387.48675396 99.46304783 386.46675396 99.12304783 C386.46675396 98.13304783 386.46675396 97.14304783 386.46675396 96.12304783 C384.48675396 97.11304783 382.50675396 98.10304783 380.46675396 99.12304783 C381.45675396 99.12304783 382.44675396 99.12304783 383.46675396 99.12304783 C384.12675396 99.45304783 384.78675396 99.78304783 385.46675396 100.12304783 C385.46675396 100.78304783 385.46675396 101.44304783 385.46675396 102.12304783 C383.81675396 102.45304783 382.16675396 102.78304783 380.46675396 103.12304783 C380.79675396 104.11304783 381.12675396 105.10304783 381.46675396 106.12304783 C380.80675396 106.12304783 380.14675396 106.12304783 379.46675396 106.12304783 C379.46675396 105.46304783 379.46675396 104.80304783 379.46675396 104.12304783 C377.90425587 105.43505956 377.90425587 105.43505956 376.46675396 107.12304783 C376.46675396 108.11304783 376.46675396 109.10304783 376.46675396 110.12304783 C375.80675396 110.45304783 375.14675396 110.78304783 374.46675396 111.12304783 C373.81462104 113.14768038 373.81462104 113.14768038 373.46675396 115.12304783 C372.14675396 115.45304783 370.82675396 115.78304783 369.46675396 116.12304783 C369.46675396 114.80304783 369.46675396 113.48304783 369.46675396 112.12304783 C369.13675396 111.79304783 368.80675396 111.46304783 368.46675396 111.12304783 C366.42698119 114.36814086 364.80163524 117.52913669 363.46675396 121.12304783 C364.78675396 120.79304783 366.10675396 120.46304783 367.46675396 120.12304783 C367.46675396 121.44304783 367.46675396 122.76304783 367.46675396 124.12304783 C365.48675396 124.12304783 363.50675396 124.12304783 361.46675396 124.12304783 C361.46675396 122.80304783 361.46675396 121.48304783 361.46675396 120.12304783 C360.80675396 120.12304783 360.14675396 120.12304783 359.46675396 120.12304783 C359.46675396 119.46304783 359.46675396 118.80304783 359.46675396 118.12304783 C358.80675396 118.12304783 358.14675396 118.12304783 357.46675396 118.12304783 C357.79675396 116.80304783 358.12675396 115.48304783 358.46675396 114.12304783 C357.68300396 114.61804783 356.89925396 115.11304783 356.09175396 115.62304783 C353.46675396 117.12304783 353.46675396 117.12304783 351.46675396 117.12304783 C351.46675396 117.78304783 351.46675396 118.44304783 351.46675396 119.12304783 C352.41550396 119.34992283 353.36425396 119.57679783 354.34175396 119.81054783 C357.46675396 121.12304783 357.46675396 121.12304783 358.84175396 123.74804783 C359.04800396 124.53179783 359.25425396 125.31554783 359.46675396 126.12304783 C358.80675396 126.78304783 358.14675396 127.44304783 357.46675396 128.12304783 C356.80675396 128.12304783 356.14675396 128.12304783 355.46675396 128.12304783 C354.47675396 128.45304783 353.48675396 128.78304783 352.46675396 129.12304783 C352.13675396 128.13304783 351.80675396 127.14304783 351.46675396 126.12304783 C350.80675396 126.12304783 350.14675396 126.12304783 349.46675396 126.12304783 C349.98943862 128.8858096 350.57544982 131.44913542 351.46675396 134.12304783 C349.65425396 137.31054783 349.65425396 137.31054783 347.46675396 140.12304783 C346.80675396 140.12304783 346.14675396 140.12304783 345.46675396 140.12304783 C345.13675396 140.78304783 344.80675396 141.44304783 344.46675396 142.12304783 C344.15737896 141.00929783 343.84800396 139.89554783 343.52925396 138.74804783 C342.64348913 135.32853233 342.64348913 135.32853233 341.46675396 133.12304783 C342.45675396 132.13304783 343.44675396 131.14304783 344.46675396 130.12304783 C342.23342375 130.98050211 342.23342375 130.98050211 340.46675396 133.12304783 C340.4068565 136.19415381 340.88623151 139.11316511 341.46675396 142.12304783 C342.12675396 142.12304783 342.78675396 142.12304783 343.46675396 142.12304783 C343.46675396 144.43304783 343.46675396 146.74304783 343.46675396 149.12304783 C342.80675396 149.45304783 342.14675396 149.78304783 341.46675396 150.12304783 C341.46675396 149.13304783 341.46675396 148.14304783 341.46675396 147.12304783 C340.84800396 147.32929783 340.22925396 147.53554783 339.59175396 147.74804783 C338.89050396 147.87179783 338.18925396 147.99554783 337.46675396 148.12304783 C336.80675396 147.46304783 336.14675396 146.80304783 335.46675396 146.12304783 C337.44675396 145.79304783 339.42675396 145.46304783 341.46675396 145.12304783 C340.80675396 144.13304783 340.14675396 143.14304783 339.46675396 142.12304783 C339.46675396 141.13304783 339.46675396 140.14304783 339.46675396 139.12304783 C335.58722852 141.75253474 335.58722852 141.75253474 333.65425396 145.87304783 C333.59237896 146.61554783 333.53050396 147.35804783 333.46675396 148.12304783 C330.97313825 146.91923335 328.78532313 145.66876061 326.46675396 144.12304783 C326.13675396 144.78304783 325.80675396 145.44304783 325.46675396 146.12304783 C324.80675396 146.12304783 324.14675396 146.12304783 323.46675396 146.12304783 C323.46675396 145.46304783 323.46675396 144.80304783 323.46675396 144.12304783 C322.47675396 144.45304783 321.48675396 144.78304783 320.46675396 145.12304783 C323.69466951 147.27499153 324.75076205 147.32391226 328.46675396 147.12304783 C328.79675396 148.11304783 329.12675396 149.10304783 329.46675396 150.12304783 C328.37362896 150.32929783 327.28050396 150.53554783 326.15425396 150.74804783 C322.27544797 151.77308612 322.27544797 151.77308612 320.59175396 155.06054783 C319.85336913 157.07059542 319.14391742 159.09155746 318.46675396 161.12304783 C319.95175396 162.60804783 319.95175396 162.60804783 321.46675396 164.12304783 C320.47675396 164.45304783 319.48675396 164.78304783 318.46675396 165.12304783 C318.13675396 164.13304783 317.80675396 163.14304783 317.46675396 162.12304783 C316.80675396 162.12304783 316.14675396 162.12304783 315.46675396 162.12304783 C315.22462831 162.83105534 314.98250265 163.53906284 314.73303986 164.26852512 C313.44650137 167.79162747 312.29803338 169.62400845 309.46675396 172.12304783 C302.50176351 174.2248221 294.63365184 173.42055652 287.44795513 173.31836033 C285.15627222 173.3221283 282.86459294 173.33032039 280.57293987 173.34260654 C274.34910636 173.36368428 268.12697492 173.32350915 261.9033668 173.27305317 C255.38925933 173.23121897 248.87531293 173.24745849 242.36111736 173.25805759 C231.4181582 173.26835006 220.47575917 173.24522165 209.53291607 173.19482517 C198.28583197 173.14314707 187.03890566 173.106628 175.79170513 173.09423923 C175.09941314 173.09346819 174.40712114 173.09269714 173.6938506 173.09190273 C166.12928073 173.08386291 158.56471081 173.07951549 151.00013733 173.07684422 C149.65790134 173.07633054 148.31566536 173.07581176 146.97342938 173.07528782 C144.32336627 173.07425511 141.67330311 173.07333847 139.02323991 173.07254124 C131.26822171 173.06850201 123.51343583 173.04895232 115.75848901 173.01569557 C110.92996916 172.9961104 106.10144732 172.98409699 101.27290058 172.97336483 C99.03681969 172.96647518 96.8007464 172.95606667 94.56470013 172.94184399 C91.5071554 172.92269043 88.44981141 172.91589382 85.39221478 172.91186619 C84.51204117 172.90311026 83.63186756 172.89435432 82.72502202 172.88533306 C71.92177344 172.90224792 62.78301347 175.34779555 54.64253521 182.79101658 C46.45778339 191.80042853 45.02170883 201.31738243 45.12691021 213.22851658 C45.8636801 221.67173011 49.47503123 229.22057495 55.30269146 235.36914158 C62.7752932 241.42545599 70.8638068 244.2318384 80.32570171 244.28126621 C81.01515621 244.28620419 81.70461071 244.29114217 82.41495776 244.29622978 C84.72421295 244.3115827 87.03344039 244.3199594 89.34273052 244.32837009 C90.99847438 244.33795035 92.65421579 244.34796052 94.30995464 244.35836887 C98.80542658 244.38540798 103.300909 244.40642294 107.79641724 244.42637086 C112.49430853 244.44823652 117.19216753 244.47562238 121.89003277 244.5024271 C130.78637288 244.55234612 139.68273091 244.5972879 148.57910609 244.64044946 C158.70720159 244.68982858 168.83526468 244.74474422 178.96332884 244.80012906 C199.79777369 244.91393697 220.63224948 245.02077862 241.46675396 245.12304783 C238.90817334 247.89795159 237.27761018 248.73219078 233.46675396 249.12304783 C232.80675396 248.79304783 232.14675396 248.46304783 231.46675396 248.12304783 C231.46675396 247.46304783 231.46675396 246.80304783 231.46675396 246.12304783 C230.14675396 246.12304783 228.82675396 246.12304783 227.46675396 246.12304783 C227.46675396 246.78304783 227.46675396 247.44304783 227.46675396 248.12304783 C226.80675396 248.45304783 226.14675396 248.78304783 225.46675396 249.12304783 C225.81120277 251.59571548 225.81120277 251.59571548 226.46675396 254.12304783 C227.12675396 254.45304783 227.78675396 254.78304783 228.46675396 255.12304783 C227.46675396 256.12304783 227.46675396 256.12304783 225.40034771 256.22070408 C224.57663677 256.20910252 223.75292583 256.19750095 222.90425396 256.18554783 C222.0779649 256.17652439 221.25167583 256.16750095 220.40034771 256.15820408 C219.76226177 256.14660252 219.12417583 256.13500095 218.46675396 256.12304783 C218.13675396 256.78304783 217.80675396 257.44304783 217.46675396 258.12304783 C216.47675396 257.79304783 215.48675396 257.46304783 214.46675396 257.12304783 C214.79675396 255.14304783 215.12675396 253.16304783 215.46675396 251.12304783 C214.80675396 250.79304783 214.14675396 250.46304783 213.46675396 250.12304783 C212.80675396 252.10304783 212.14675396 254.08304783 211.46675396 256.12304783 C210.14675396 256.12304783 208.82675396 256.12304783 207.46675396 256.12304783 C207.46675396 255.46304783 207.46675396 254.80304783 207.46675396 254.12304783 C206.80675396 254.12304783 206.14675396 254.12304783 205.46675396 254.12304783 C205.46675396 255.44304783 205.46675396 256.76304783 205.46675396 258.12304783 C204.47675396 258.45304783 203.48675396 258.78304783 202.46675396 259.12304783 C202.13675396 260.11304783 201.80675396 261.10304783 201.46675396 262.12304783 C200.14675396 262.12304783 198.82675396 262.12304783 197.46675396 262.12304783 C198.12675396 264.10304783 198.78675396 266.08304783 199.46675396 268.12304783 C198.80675396 268.78304783 198.14675396 269.44304783 197.46675396 270.12304783 C197.13675396 269.13304783 196.80675396 268.14304783 196.46675396 267.12304783 C196.13675396 268.77304783 195.80675396 270.42304783 195.46675396 272.12304783 C194.80675396 272.12304783 194.14675396 272.12304783 193.46675396 272.12304783 C193.13675396 272.78304783 192.80675396 273.44304783 192.46675396 274.12304783 C191.80675396 272.47304783 191.14675396 270.82304783 190.46675396 269.12304783 C190.13675396 270.77304783 189.80675396 272.42304783 189.46675396 274.12304783 C188.47675396 274.45304783 187.48675396 274.78304783 186.46675396 275.12304783 C186.13675396 276.11304783 185.80675396 277.10304783 185.46675396 278.12304783 C183.40425396 278.81054783 183.40425396 278.81054783 181.46675396 279.12304783 C182.12675396 280.77304783 182.78675396 282.42304783 183.46675396 284.12304783 C182.80675396 284.12304783 182.14675396 284.12304783 181.46675396 284.12304783 C181.13675396 283.46304783 180.80675396 282.80304783 180.46675396 282.12304783 C179.80675396 283.11304783 179.14675396 284.10304783 178.46675396 285.12304783 C177.80675396 285.12304783 177.14675396 285.12304783 176.46675396 285.12304783 C176.79675396 286.11304783 177.12675396 287.10304783 177.46675396 288.12304783 C176.14675396 288.12304783 174.82675396 288.12304783 173.46675396 288.12304783 C173.46675396 287.46304783 173.46675396 286.80304783 173.46675396 286.12304783 C172.88925396 286.80367283 172.31175396 287.48429783 171.71675396 288.18554783 C169.46675396 290.12304783 169.46675396 290.12304783 167.27925396 289.99804783 C165.46675396 289.12304783 165.46675396 289.12304783 164.46675396 287.12304783 C164.13675396 287.78304783 163.80675396 288.44304783 163.46675396 289.12304783 C164.12675396 289.45304783 164.78675396 289.78304783 165.46675396 290.12304783 C165.46675396 290.78304783 165.46675396 291.44304783 165.46675396 292.12304783 C166.12675396 292.12304783 166.78675396 292.12304783 167.46675396 292.12304783 C166.95963363 295.84193022 166.35067181 298.85759022 164.46675396 302.12304783 C163.80675396 300.47304783 163.14675396 298.82304783 162.46675396 297.12304783 C163.45675396 296.79304783 164.44675396 296.46304783 165.46675396 296.12304783 C165.46675396 295.13304783 165.46675396 294.14304783 165.46675396 293.12304783 C165.01300396 293.78304783 164.55925396 294.44304783 164.09175396 295.12304783 C160.13443363 298.13814903 156.27671251 297.453503 151.46675396 297.12304783 C152.45675396 298.60804783 152.45675396 298.60804783 153.46675396 300.12304783 C155.11675396 299.46304783 156.76675396 298.80304783 158.46675396 298.12304783 C158.79675396 299.44304783 159.12675396 300.76304783 159.46675396 302.12304783 C158.35300396 302.49429783 158.35300396 302.49429783 157.21675396 302.87304783 C154.26551334 304.21452084 152.61860422 305.73210309 150.46675396 308.12304783 C151.58050396 307.93742283 152.69425396 307.75179783 153.84175396 307.56054783 C157.46675396 307.12304783 157.46675396 307.12304783 159.46675396 308.12304783 C159.13675396 309.44304783 158.80675396 310.76304783 158.46675396 312.12304783 C157.47675396 312.12304783 156.48675396 312.12304783 155.46675396 312.12304783 C155.46675396 312.78304783 155.46675396 313.44304783 155.46675396 314.12304783 C154.47675396 313.79304783 153.48675396 313.46304783 152.46675396 313.12304783 C152.79675396 312.13304783 153.12675396 311.14304783 153.46675396 310.12304783 C152.60050396 309.97867283 151.73425396 309.83429783 150.84175396 309.68554783 C148.59175396 309.31054783 146.34175396 308.93554783 144.09175396 308.56054783 C143.22550396 308.41617283 142.35925396 308.27179783 141.46675396 308.12304783 C141.22441021 308.76113377 140.98206646 309.3992197 140.73237896 310.05664158 C140.39722271 310.88293064 140.06206646 311.7092197 139.71675396 312.56054783 C139.39191021 313.38425877 139.06706646 314.2079697 138.73237896 315.05664158 C137.46675396 317.12304783 137.46675396 317.12304783 135.32612896 317.90820408 C134.71253521 317.97910252 134.09894146 318.05000095 133.46675396 318.12304783 C133.46675396 318.78304783 133.46675396 319.44304783 133.46675396 320.12304783 C134.12675396 320.45304783 134.78675396 320.78304783 135.46675396 321.12304783 C135.46675396 322.11304783 135.46675396 323.10304783 135.46675396 324.12304783 C134.80675396 324.12304783 134.14675396 324.12304783 133.46675396 324.12304783 C133.46675396 323.46304783 133.46675396 322.80304783 133.46675396 322.12304783 C131.98175396 323.60804783 131.98175396 323.60804783 130.46675396 325.12304783 C131.45675396 325.45304783 132.44675396 325.78304783 133.46675396 326.12304783 C133.46675396 326.78304783 133.46675396 327.44304783 133.46675396 328.12304783 C132.14675396 328.12304783 130.82675396 328.12304783 129.46675396 328.12304783 C129.46675396 327.46304783 129.46675396 326.80304783 129.46675396 326.12304783 C128.82737896 325.99929783 128.18800396 325.87554783 127.52925396 325.74804783 C126.84862896 325.54179783 126.16800396 325.33554783 125.46675396 325.12304783 C125.13675396 324.46304783 124.80675396 323.80304783 124.46675396 323.12304783 C124.13675396 324.77304783 123.80675396 326.42304783 123.46675396 328.12304783 C124.78675396 328.45304783 126.10675396 328.78304783 127.46675396 329.12304783 C126.27925396 330.62304783 126.27925396 330.62304783 124.46675396 332.12304783 C121.77925396 332.31054783 121.77925396 332.31054783 119.46675396 332.12304783 C119.46675396 331.46304783 119.46675396 330.80304783 119.46675396 330.12304783 C118.47675396 330.12304783 117.48675396 330.12304783 116.46675396 330.12304783 C115.47675396 328.63804783 115.47675396 328.63804783 114.46675396 327.12304783 C114.13675396 328.11304783 113.80675396 329.10304783 113.46675396 330.12304783 C114.12675396 330.12304783 114.78675396 330.12304783 115.46675396 330.12304783 C115.46675396 332.10304783 115.46675396 334.08304783 115.46675396 336.12304783 C116.78675396 336.12304783 118.10675396 336.12304783 119.46675396 336.12304783 C119.46675396 337.44304783 119.46675396 338.76304783 119.46675396 340.12304783 C118.47675396 340.12304783 117.48675396 340.12304783 116.46675396 340.12304783 C116.46675396 339.46304783 116.46675396 338.80304783 116.46675396 338.12304783 C114.48675396 338.45304783 112.50675396 338.78304783 110.46675396 339.12304783 C110.63175396 339.90679783 110.79675396 340.69054783 110.96675396 341.49804783 C111.46675396 344.12304783 111.46675396 344.12304783 111.46675396 346.12304783 C109.59175396 346.74804783 109.59175396 346.74804783 107.46675396 347.12304783 C106.80675396 346.46304783 106.14675396 345.80304783 105.46675396 345.12304783 C104.31726719 346.14625341 104.31726719 346.14625341 103.67769146 348.00586033 C102.18193693 350.62101824 100.67331061 351.4799896 98.09175396 352.99804783 C93.96353184 355.60394649 91.79872941 357.86465788 89.46675396 362.12304783 C88.47675396 361.79304783 87.48675396 361.46304783 86.46675396 361.12304783 C86.79675396 359.80304783 87.12675396 358.48304783 87.46675396 357.12304783 C86.80675396 358.11304783 86.14675396 359.10304783 85.46675396 360.12304783 C82.84175396 360.81054783 82.84175396 360.81054783 80.46675396 361.12304783 C80.79675396 360.13304783 81.12675396 359.14304783 81.46675396 358.12304783 C82.12675396 358.12304783 82.78675396 358.12304783 83.46675396 358.12304783 C83.13675396 357.13304783 82.80675396 356.14304783 82.46675396 355.12304783 C79.87898188 358.17885757 79.87898188 358.17885757 79.46675396 362.12304783 C78.80675396 362.12304783 78.14675396 362.12304783 77.46675396 362.12304783 C77.15737896 363.09242283 76.84800396 364.06179783 76.52925396 365.06054783 C75.46675396 368.12304783 75.46675396 368.12304783 74.46675396 369.12304783 C75.45675396 369.45304783 76.44675396 369.78304783 77.46675396 370.12304783 C77.46675396 370.78304783 77.46675396 371.44304783 77.46675396 372.12304783 C76.80675396 372.45304783 76.14675396 372.78304783 75.46675396 373.12304783 C75.46675396 374.44304783 75.46675396 375.76304783 75.46675396 377.12304783 C76.78675396 376.79304783 78.10675396 376.46304783 79.46675396 376.12304783 C79.46675396 377.44304783 79.46675396 378.76304783 79.46675396 380.12304783 C77.48675396 380.12304783 75.50675396 380.12304783 73.46675396 380.12304783 C73.46675396 378.80304783 73.46675396 377.48304783 73.46675396 376.12304783 C72.80675396 376.12304783 72.14675396 376.12304783 71.46675396 376.12304783 C70.80675396 374.80304783 70.14675396 373.48304783 69.46675396 372.12304783 C66.22466829 372.47354358 64.85147692 372.68525963 62.65425396 375.18554783 C62.26237896 375.82492283 61.87050396 376.46429783 61.46675396 377.12304783 C62.78675396 376.79304783 64.10675396 376.46304783 65.46675396 376.12304783 C65.46675396 375.46304783 65.46675396 374.80304783 65.46675396 374.12304783 C66.45675396 374.45304783 67.44675396 374.78304783 68.46675396 375.12304783 C68.71675396 381.74804783 68.71675396 381.74804783 66.46675396 385.12304783 C65.47675396 384.79304783 64.48675396 384.46304783 63.46675396 384.12304783 C63.46675396 383.46304783 63.46675396 382.80304783 63.46675396 382.12304783 C62.80675396 382.12304783 62.14675396 382.12304783 61.46675396 382.12304783 C61.46675396 384.76304783 61.46675396 387.40304783 61.46675396 390.12304783 C60.80675396 390.12304783 60.14675396 390.12304783 59.46675396 390.12304783 C59.46675396 389.46304783 59.46675396 388.80304783 59.46675396 388.12304783 C54.21558325 390.25108947 54.21558325 390.25108947 50.46675396 394.12304783 C50.85126207 396.93162883 51.61763216 399.39691993 52.46675396 402.12304783 C47.84175396 404.24804783 47.84175396 404.24804783 44.46675396 403.12304783 C44.09464976 401.80001066 43.76045223 400.46566848 43.46675396 399.12304783 C42.80675396 398.79304783 42.14675396 398.46304783 41.46675396 398.12304783 C41.46675396 397.46304783 41.46675396 396.80304783 41.46675396 396.12304783 C40.80675396 396.12304783 40.14675396 396.12304783 39.46675396 396.12304783 C37.84175396 394.62304783 37.84175396 394.62304783 36.46675396 393.12304783 C36.46675396 394.44304783 36.46675396 395.76304783 36.46675396 397.12304783 C38.11675396 397.78304783 39.76675396 398.44304783 41.46675396 399.12304783 C41.46675396 400.77304783 41.46675396 402.42304783 41.46675396 404.12304783 C40.47675396 404.12304783 39.48675396 404.12304783 38.46675396 404.12304783 C37.46675396 403.12304783 36.46675396 402.12304783 35.46675396 401.12304783 C34.47675396 401.12304783 33.48675396 401.12304783 32.46675396 401.12304783 C33.12675396 401.45304783 33.78675396 401.78304783 34.46675396 402.12304783 C34.46675396 403.44304783 34.46675396 404.76304783 34.46675396 406.12304783 C36.44675396 406.12304783 38.42675396 406.12304783 40.46675396 406.12304783 C40.13675396 407.11304783 39.80675396 408.10304783 39.46675396 409.12304783 C38.37362896 409.08179783 37.28050396 409.04054783 36.15425396 408.99804783 C32.37783167 408.80230117 32.37783167 408.80230117 29.46675396 411.12304783 C28.80675396 410.79304783 28.14675396 410.46304783 27.46675396 410.12304783 C27.46675396 408.80304783 27.46675396 407.48304783 27.46675396 406.12304783 C26.47675396 406.12304783 25.48675396 406.12304783 24.46675396 406.12304783 C24.13675396 406.78304783 23.80675396 407.44304783 23.46675396 408.12304783 C24.12675396 408.12304783 24.78675396 408.12304783 25.46675396 408.12304783 C25.46675396 409.44304783 25.46675396 410.76304783 25.46675396 412.12304783 C26.78675396 412.12304783 28.10675396 412.12304783 29.46675396 412.12304783 C29.46675396 413.44304783 29.46675396 414.76304783 29.46675396 416.12304783 C27.97066021 417.50195408 27.97066021 417.50195408 26.02925396 418.68554783 C22.86293508 420.60096888 22.86293508 420.60096888 21.46675396 424.12304783 C20.14675396 423.46304783 18.82675396 422.80304783 17.46675396 422.12304783 C18.12675396 422.12304783 18.78675396 422.12304783 19.46675396 422.12304783 C18.80675396 421.46304783 18.14675396 420.80304783 17.46675396 420.12304783 C15.94375873 423.06025291 14.66575094 426.03991273 13.46675396 429.12304783 C14.22987896 428.95804783 14.99300396 428.79304783 15.77925396 428.62304783 C18.46675396 428.12304783 18.46675396 428.12304783 21.46675396 428.12304783 C20.80675396 430.43304783 20.14675396 432.74304783 19.46675396 435.12304783 C18.14675396 435.45304783 16.82675396 435.78304783 15.46675396 436.12304783 C15.13675396 435.46304783 14.80675396 434.80304783 14.46675396 434.12304783 C15.45675396 434.12304783 16.44675396 434.12304783 17.46675396 434.12304783 C16.97175396 432.63804783 16.97175396 432.63804783 16.46675396 431.12304783 C14.48675396 431.12304783 12.50675396 431.12304783 10.46675396 431.12304783 C10.13675396 432.11304783 9.80675396 433.10304783 9.46675396 434.12304783 C10.12675396 434.12304783 10.78675396 434.12304783 11.46675396 434.12304783 C11.46675396 434.78304783 11.46675396 435.44304783 11.46675396 436.12304783 C10.14675396 436.12304783 8.82675396 436.12304783 7.46675396 436.12304783 C6.47675396 434.63804783 6.47675396 434.63804783 5.46675396 433.12304783 C3.40750257 432.39922316 3.40750257 432.39922316 1.46675396 432.12304783 C1.46675396 431.46304783 1.46675396 430.80304783 1.46675396 430.12304783 C2.12675396 430.12304783 2.78675396 430.12304783 3.46675396 430.12304783 C3.46675396 428.80304783 3.46675396 427.48304783 3.46675396 426.12304783 C4.12675396 426.12304783 4.78675396 426.12304783 5.46675396 426.12304783 C5.46675396 425.46304783 5.46675396 424.80304783 5.46675396 424.12304783 C6.45675396 424.12304783 7.44675396 424.12304783 8.46675396 424.12304783 C8.79675396 423.46304783 9.12675396 422.80304783 9.46675396 422.12304783 C5.61452513 422.66116405 4.07498379 424.21442047 1.65425396 427.18554783 C-0.79480616 430.45619436 -2.042694 432.50367749 -1.59574604 436.62304783 C-1.24512104 437.77804783 -0.89449604 438.93304783 -0.53324604 440.12304783 C0.12675396 440.45304783 0.78675396 440.78304783 1.46675396 441.12304783 C1.46675396 442.44304783 1.46675396 443.76304783 1.46675396 445.12304783 C0.47675396 444.79304783 -0.51324604 444.46304783 -1.53324604 444.12304783 C-1.53324604 443.46304783 -1.53324604 442.80304783 -1.53324604 442.12304783 C-4.79785577 443.92717426 -6.42254399 444.95699476 -8.53324604 448.12304783 C-7.21324604 448.78304783 -5.89324604 449.44304783 -4.53324604 450.12304783 C-5.85324604 450.12304783 -7.17324604 450.12304783 -8.53324604 450.12304783 C-8.03824604 451.60804783 -8.03824604 451.60804783 -7.53324604 453.12304783 C-8.19324604 453.78304783 -8.85324604 454.44304783 -9.53324604 455.12304783 C-10.23073187 456.44052107 -10.90284561 457.77218976 -11.53324604 459.12304783 C-12.53324604 456.12304783 -12.53324604 456.12304783 -11.09574604 452.93554783 C-10.58012104 452.00742283 -10.06449604 451.07929783 -9.53324604 450.12304783 C-12.08828561 451.4059354 -12.08828561 451.4059354 -14.53324604 453.12304783 C-14.53324604 454.11304783 -14.53324604 455.10304783 -14.53324604 456.12304783 C-15.19324604 456.45304783 -15.85324604 456.78304783 -16.53324604 457.12304783 C-16.86324604 458.11304783 -17.19324604 459.10304783 -17.53324604 460.12304783 C-19.18324604 460.12304783 -20.83324604 460.12304783 -22.53324604 460.12304783 C-22.53324604 459.46304783 -22.53324604 458.80304783 -22.53324604 458.12304783 C-24.84324604 457.46304783 -27.15324604 456.80304783 -29.53324604 456.12304783 C-29.86324604 456.78304783 -30.19324604 457.44304783 -30.53324604 458.12304783 C-29.87324604 458.12304783 -29.21324604 458.12304783 -28.53324604 458.12304783 C-28.20324604 459.44304783 -27.87324604 460.76304783 -27.53324604 462.12304783 C-27.20324604 461.46304783 -26.87324604 460.80304783 -26.53324604 460.12304783 C-25.54324604 460.45304783 -24.55324604 460.78304783 -23.53324604 461.12304783 C-24.19324604 462.77304783 -24.85324604 464.42304783 -25.53324604 466.12304783 C-24.54324604 466.12304783 -23.55324604 466.12304783 -22.53324604 466.12304783 C-22.53324604 466.78304783 -22.53324604 467.44304783 -22.53324604 468.12304783 C-24.08012104 467.78273533 -24.08012104 467.78273533 -25.65824604 467.43554783 C-29.53684773 466.77290518 -29.53684773 466.77290518 -32.59574604 468.74804783 C-33.56512104 469.20179783 -34.53449604 469.65554783 -35.53324604 470.12304783 C-38.90824604 468.81054783 -38.90824604 468.81054783 -41.53324604 467.12304783 C-42.52324604 469.10304783 -43.51324604 471.08304783 -44.53324604 473.12304783 C-43.87324604 473.45304783 -43.21324604 473.78304783 -42.53324604 474.12304783 C-42.53324604 474.78304783 -42.53324604 475.44304783 -42.53324604 476.12304783 C-41.21324604 476.12304783 -39.89324604 476.12304783 -38.53324604 476.12304783 C-38.53324604 475.46304783 -38.53324604 474.80304783 -38.53324604 474.12304783 C-39.19324604 474.12304783 -39.85324604 474.12304783 -40.53324604 474.12304783 C-41.02824604 472.63804783 -41.02824604 472.63804783 -41.53324604 471.12304783 C-40.54324604 470.79304783 -39.55324604 470.46304783 -38.53324604 470.12304783 C-38.53324604 470.78304783 -38.53324604 471.44304783 -38.53324604 472.12304783 C-37.21324604 472.45304783 -35.89324604 472.78304783 -34.53324604 473.12304783 C-34.53324604 472.46304783 -34.53324604 471.80304783 -34.53324604 471.12304783 C-33.21324604 471.78304783 -31.89324604 472.44304783 -30.53324604 473.12304783 C-33.99824604 475.10304783 -33.99824604 475.10304783 -37.53324604 477.12304783 C-37.36824604 477.78304783 -37.20324604 478.44304783 -37.03324604 479.12304783 C-36.41141305 482.85404577 -36.46915678 486.34178161 -36.53324604 490.12304783 C-37.19324604 490.12304783 -37.85324604 490.12304783 -38.53324604 490.12304783 C-39.19324604 489.46304783 -39.85324604 488.80304783 -40.53324604 488.12304783 C-41.19324604 488.12304783 -41.85324604 488.12304783 -42.53324604 488.12304783 C-42.53324604 487.46304783 -42.53324604 486.80304783 -42.53324604 486.12304783 C-41.54324604 485.79304783 -40.55324604 485.46304783 -39.53324604 485.12304783 C-39.53324604 483.14304783 -39.53324604 481.16304783 -39.53324604 479.12304783 C-40.31699604 479.32929783 -41.10074604 479.53554783 -41.90824604 479.74804783 C-42.77449604 479.87179783 -43.64074604 479.99554783 -44.53324604 480.12304783 C-45.19324604 479.46304783 -45.85324604 478.80304783 -46.53324604 478.12304783 C-45.87324604 478.12304783 -45.21324604 478.12304783 -44.53324604 478.12304783 C-45.19324604 477.46304783 -45.85324604 476.80304783 -46.53324604 476.12304783 C-46.87355854 476.92742283 -46.87355854 476.92742283 -47.22074604 477.74804783 C-48.9670666 480.90805646 -51.17353094 483.39074613 -53.53324604 486.12304783 C-53.86324604 485.46304783 -54.19324604 484.80304783 -54.53324604 484.12304783 C-55.52324604 484.45304783 -56.51324604 484.78304783 -57.53324604 485.12304783 C-56.54324604 486.11304783 -55.55324604 487.10304783 -54.53324604 488.12304783 C-54.86324604 488.78304783 -55.19324604 489.44304783 -55.53324604 490.12304783 C-58.59574604 490.74804783 -58.59574604 490.74804783 -61.53324604 491.12304783 C-61.53324604 492.11304783 -61.53324604 493.10304783 -61.53324604 494.12304783 C-60.54324604 494.45304783 -59.55324604 494.78304783 -58.53324604 495.12304783 C-59.15199604 495.24679783 -59.77074604 495.37054783 -60.40824604 495.49804783 C-62.72445436 495.99502139 -62.72445436 495.99502139 -64.53324604 498.12304783 C-65.70887104 498.59742283 -66.88449604 499.07179783 -68.09574604 499.56054783 C-69.79730854 500.33398533 -69.79730854 500.33398533 -71.53324604 501.12304783 C-71.86324604 502.11304783 -72.19324604 503.10304783 -72.53324604 504.12304783 C-71.54324604 504.45304783 -70.55324604 504.78304783 -69.53324604 505.12304783 C-70.52324604 505.45304783 -71.51324604 505.78304783 -72.53324604 506.12304783 C-72.20324604 507.44304783 -71.87324604 508.76304783 -71.53324604 510.12304783 C-73.51324604 509.79304783 -75.49324604 509.46304783 -77.53324604 509.12304783 C-77.6019382 453.32498476 -77.65478807 397.5269259 -77.68644203 341.72882884 C-77.69019407 335.13879956 -77.69407705 328.54877035 -77.69804096 321.95874119 C-77.69882789 320.64680534 -77.69961482 319.3348695 -77.7004256 317.98317803 C-77.71347344 296.75075914 -77.73712387 275.51836466 -77.76470443 254.28596025 C-77.79277591 232.4936002 -77.80942599 210.70125292 -77.81551152 188.90887552 C-77.81962434 175.46582055 -77.83260648 162.02283458 -77.85699544 148.57980085 C-77.87287412 139.35681305 -77.87764156 130.13386083 -77.87375017 120.91086035 C-77.87183196 115.59262999 -77.87473725 110.27452008 -77.89086246 104.95631123 C-77.90554048 100.07959822 -77.90614744 95.20308582 -77.89594273 90.32636327 C-77.89468286 88.56971096 -77.8984211 86.81304575 -77.90789559 85.05641853 C-78.03004479 60.99411299 -72.22899224 40.70841614 -55.33012104 22.75976658 C-43.4941169 11.60152245 -29.20837549 4.93909058 -13.53324604 1.12304783 C-12.81971055 0.94487524 -12.10617506 0.76670265 -11.37101728 0.5831309 C-7.57733922 -0.03193173 -3.83152779 -0.01257763 0 0 Z M370.46675396 102.12304783 C370.67300396 102.88617283 370.87925396 103.64929783 371.09175396 104.43554783 C371.46675396 107.12304783 371.46675396 107.12304783 369.46675396 110.12304783 C370.78675396 110.12304783 372.10675396 110.12304783 373.46675396 110.12304783 C373.46675396 107.48304783 373.46675396 104.84304783 373.46675396 102.12304783 C372.47675396 102.12304783 371.48675396 102.12304783 370.46675396 102.12304783 Z " fill="#663EA4" transform="translate(90.53324604034424,13.876952171325684)"/>
<path d="M0 0 C1.50865917 -0.00761181 1.50865917 -0.00761181 3.04779631 -0.0153774 C4.69456151 -0.01612404 4.69456151 -0.01612404 6.37459469 -0.01688576 C8.13239731 -0.02345914 8.13239731 -0.02345914 9.9257111 -0.03016531 C13.17490445 -0.04121 16.42407066 -0.04777153 19.67327845 -0.05234647 C23.17925682 -0.05831515 26.68521758 -0.06992178 30.19118404 -0.08063698 C38.65640938 -0.10513156 47.12164052 -0.11978357 55.58689037 -0.13269705 C57.97911621 -0.13641105 60.37134147 -0.14038411 62.76356673 -0.14444971 C77.62937196 -0.16968772 92.49517815 -0.19173367 107.36100006 -0.20417786 C110.80245689 -0.20710739 114.24391369 -0.21006908 117.68537045 -0.21308327 C118.54069227 -0.21382932 119.39601409 -0.21457537 120.27725475 -0.21534403 C134.12665915 -0.2279922 147.97593502 -0.26120992 161.82527936 -0.3028851 C176.05461259 -0.34535162 190.2838801 -0.3688783 204.51327652 -0.37409842 C212.49831139 -0.37750712 220.48314536 -0.38919838 228.46811771 -0.42220116 C235.26978378 -0.45026773 242.07120773 -0.46117215 248.8729272 -0.4500057 C252.33987334 -0.44483587 255.80631296 -0.44759504 259.27318478 -0.47247124 C263.04170061 -0.49520304 266.80895212 -0.48684691 270.57747555 -0.47098732 C272.20081817 -0.49181045 272.20081817 -0.49181045 273.85695559 -0.51305425 C284.49359347 -0.40324278 293.58852789 3.04655302 301.30719662 10.44560814 C310.20013062 19.76919269 311.32552375 28.56887563 311.13141537 40.96123314 C310.79573272 50.28367899 307.0100556 57.07436564 300.44391537 63.60576439 C294.28479828 69.00734301 288.10352622 72.2568386 279.87753677 72.26844215 C278.34296356 72.27420387 278.34296356 72.27420387 276.77738887 72.28008199 C275.09400276 72.27878226 275.09400276 72.27878226 273.37660885 72.27745628 C272.1830604 72.28042741 270.98951195 72.28339853 269.75979537 72.28645968 C266.44553126 72.29363987 263.13131898 72.29631899 259.81705081 72.29705715 C256.24294922 72.29890854 252.66885885 72.30645635 249.09476376 72.31319237 C241.27853145 72.32677328 233.46230428 72.33280014 225.64606214 72.33720303 C220.76473618 72.33996607 215.88341221 72.34420357 211.00208759 72.3487072 C197.48502413 72.36089997 183.96796225 72.371199 170.4508934 72.37458229 C169.58578785 72.37480186 168.72068229 72.37502142 167.82936142 72.37524764 C166.96219319 72.37546592 166.09502497 72.3756842 165.20157892 72.37590909 C163.44438573 72.37635255 161.68719254 72.37679912 159.92999935 72.37724876 C158.62255836 72.37758091 158.62255836 72.37758091 157.28870442 72.37791976 C143.1688879 72.38186679 129.04912303 72.39931788 114.92932645 72.42260829 C100.42996519 72.44633154 85.93062983 72.4587846 71.43124884 72.45995021 C63.29153487 72.46086647 55.15188816 72.46660628 47.01219273 72.48476982 C40.08016664 72.50018401 33.14822861 72.50528354 26.21618865 72.49703172 C22.68088933 72.49312975 19.14576726 72.49403243 15.61048985 72.50808907 C11.77333882 72.52320609 7.93643611 72.51494792 4.0992651 72.50450706 C2.4326094 72.51659167 2.4326094 72.51659167 0.73228389 72.52892041 C-10.16736494 72.4595952 -18.18821357 69.82026585 -26.07952213 62.13701439 C-28.42281167 59.29341467 -30.31428368 56.36762707 -32.07952213 53.13701439 C-32.41983463 52.5350222 -32.76014713 51.93303001 -33.11077213 51.31279564 C-36.64272661 43.7746891 -36.06124744 33.75503556 -34.39202213 25.76201439 C-30.90437703 16.12947078 -25.7773795 8.89912258 -16.67327213 3.78545189 C-11.17134103 1.23622381 -6.08285202 0.0163617 0 0 Z " fill="#FDFDFE" transform="translate(170.07952213287354,433.8629856109619)"/>
<path d="M0 0 C1.80792317 -0.00935994 1.80792317 -0.00935994 3.65237004 -0.01890898 C6.97651663 -0.03204932 10.29975177 -0.02739434 13.62384188 -0.0149641 C17.21698656 -0.00588187 20.81005387 -0.01989906 24.40318298 -0.03088379 C31.43389783 -0.04864044 38.46444155 -0.04484166 45.49516302 -0.03323323 C51.21141018 -0.02418719 56.9276095 -0.02297996 62.64386177 -0.02732849 C63.4584867 -0.02794142 64.27311163 -0.02855436 65.11242216 -0.02918586 C66.76750605 -0.03046481 68.42258993 -0.03176166 70.0776738 -0.03307623 C85.58613691 -0.04447385 101.09450533 -0.03138155 116.6029529 -0.00987476 C129.89803348 0.00799212 143.19297432 0.00489393 156.48805237 -0.0135498 C171.94075366 -0.0349768 187.39337201 -0.04337175 202.84608608 -0.03110075 C204.49527139 -0.02982661 206.14445671 -0.02856912 207.79364204 -0.02732849 C208.60499256 -0.02671139 209.41634308 -0.02609429 210.25227998 -0.02545848 C215.95842342 -0.02201082 221.66451407 -0.0278214 227.37064934 -0.0372467 C234.32928427 -0.04848857 241.28773882 -0.045381 248.2463532 -0.02412373 C251.79399732 -0.01364204 255.34134116 -0.00944172 258.88898277 -0.02272034 C262.74093538 -0.03691942 266.59240089 -0.01991638 270.44433594 0 C271.55689819 -0.00892289 272.66946045 -0.01784577 273.81573671 -0.02703905 C283.76223205 0.07253444 291.65440895 2.6191939 298.96534729 9.51574707 C307.21637201 18.54583851 309.3937634 27.18261602 309.08644104 39.17590332 C308.56783768 48.94826868 305.20070753 55.86426703 298.78565979 63.15637207 C290.14868155 69.92650345 282.01997771 72.40057731 271.17259216 72.2631073 C269.96066322 72.27176168 268.74873429 72.28041606 267.50008023 72.28933269 C264.17088957 72.30705973 260.8437765 72.29824632 257.51473784 72.27762353 C253.91139523 72.26188726 250.30820453 72.28095372 246.70487976 72.29542542 C239.66045838 72.31817398 232.61643546 72.3088234 225.5720223 72.28792455 C219.84486699 72.27160009 214.11781997 72.26745086 208.39064407 72.27189064 C207.57365025 72.27252132 206.75665644 72.27315199 205.91490523 72.27380178 C204.25490892 72.27514791 202.59491264 72.27652748 200.93491639 72.27794013 C185.39348203 72.28985828 169.85226547 72.26585771 154.31088068 72.22892205 C140.98908287 72.19802026 127.66753547 72.19566592 114.34571838 72.21472168 C98.85451969 72.23685521 83.36346118 72.2429595 67.87225544 72.22239906 C66.21918497 72.22023624 64.56611448 72.21808714 62.91304398 72.21595192 C62.09981431 72.21488555 61.28658464 72.21381919 60.44871166 72.21272051 C54.73050525 72.2062634 49.01237126 72.21100316 43.29417038 72.21997643 C36.32275017 72.23053353 29.35162321 72.22294234 22.380257 72.19252064 C18.82646745 72.17743738 15.27313994 72.17016871 11.71933746 72.18471146 C7.8608668 72.20021597 4.00317855 72.17673082 0.14476013 72.14958191 C-0.96964671 72.1600534 -2.08405356 72.17052489 -3.23223031 72.18131369 C-12.78494664 72.05631647 -20.56999993 68.80669237 -27.61668396 62.29309082 C-34.97762762 54.06827114 -37.73875173 44.68238753 -37.39402771 33.78527832 C-36.48638476 22.28189049 -32.36010062 13.74637308 -23.63230896 6.07824707 C-15.84722757 1.02234607 -9.20473289 -0.07367537 0 0 Z " fill="#8AF56D" transform="translate(332.21434020996094,310.4920654296875)"/>
<path d="M0 0 C1.20190413 -0.0055344 2.40380825 -0.01106879 3.64213371 -0.0167709 C6.95681879 -0.02798238 10.27057917 -0.02138921 13.58519268 -0.00703418 C17.16808532 0.0041139 20.75091292 -0.00787962 24.33380127 -0.01687622 C31.34413589 -0.03078469 38.35428995 -0.02327027 45.36461592 -0.00820064 C53.53406011 0.00868983 61.70345972 0.00544536 69.87291598 0.00170528 C84.45258587 -0.00416892 99.0321693 0.00998097 113.61181641 0.03465271 C127.74856812 0.05857218 141.88520434 0.0656564 156.02197266 0.05516052 C171.4281472 0.04374261 186.83426837 0.04183204 202.24044228 0.05625862 C203.88427352 0.0577844 205.52810478 0.05930476 207.17193604 0.06081963 C207.98066316 0.06157744 208.78939028 0.06233525 209.62262428 0.06311603 C215.31269429 0.06785211 221.00274042 0.06601222 226.69281006 0.06175423 C233.63022453 0.05681965 240.56752997 0.06284711 247.50491953 0.08264852 C251.04226482 0.09249753 254.57944435 0.09765165 258.1167984 0.08975601 C261.95590003 0.08136239 265.79471235 0.09632311 269.63378906 0.11352539 C270.74537321 0.10751535 271.85695736 0.1015053 273.00222588 0.09531313 C283.90003616 0.18405215 291.92566079 2.81802683 299.81689453 10.50120544 C302.16031336 13.34496206 304.04925095 16.2718566 305.81689453 19.50120544 C306.15720703 20.09159607 306.49751953 20.68198669 306.84814453 21.29026794 C310.73408017 29.45792897 309.97883451 41.14038552 307.19189453 49.50120544 C303.114489 59.01039946 296.84174955 65.73279066 287.42691422 70.05889797 C281.92979982 72.07172896 276.53031286 71.92645645 270.73626709 71.90234375 C269.53325053 71.90914042 268.33023398 71.91593709 267.09076238 71.92293972 C263.76837802 71.93859683 260.44648241 71.94090296 257.12409616 71.93735659 C253.53429984 71.93674245 249.94457522 71.95332099 246.35481262 71.9675293 C239.32801169 71.99240511 232.30128626 72.00069183 225.27444497 72.00236643 C219.56010136 72.00379402 213.84578259 72.00996877 208.13144684 72.01946831 C191.9149165 72.04587635 175.69844562 72.05972829 159.48189363 72.05747689 C158.60840584 72.05735702 157.73491805 72.05723715 156.83496094 72.05711365 C155.96040132 72.05699101 155.0858417 72.05686836 154.18478027 72.05674201 C140.01543356 72.05552298 125.84632616 72.08422531 111.67704865 72.12652875 C97.11312058 72.16966585 82.54930911 72.19033678 67.98531556 72.18774742 C59.81475097 72.18675307 51.64443725 72.19492532 43.47393036 72.22728157 C36.51674795 72.25465727 29.55993014 72.2610733 22.60271707 72.2407533 C19.05670296 72.23098735 15.5113875 72.23067628 11.96544075 72.25681305 C8.11179312 72.28492433 4.25915446 72.26600293 0.40545654 72.24291992 C-0.70196215 72.25835061 -1.80938084 72.2737813 -2.95035768 72.28967959 C-13.07758105 72.15617649 -21.45362848 68.59977982 -28.62060547 61.37620544 C-37.05596406 50.80999426 -38.33607815 40.30367255 -36.92919922 27.12229919 C-35.31089742 18.69009509 -29.90360103 11.6088373 -23.60107422 6.07151794 C-15.82486141 1.02137651 -9.19443881 -0.07944756 0 0 Z " fill="#FDFDFE" transform="translate(172.18310546875,186.49879455566406)"/>
<path d="M0 0 C2.1596195 -0.00678462 4.3192332 -0.01569247 6.47883606 -0.02655029 C12.31566755 -0.04924951 18.15205473 -0.0405459 23.98889351 -0.02465487 C30.11317214 -0.01194726 36.23741413 -0.02374945 42.36169434 -0.03158569 C52.64403067 -0.0406681 62.92618711 -0.02873123 73.20849609 -0.00488281 C85.07608822 0.02232555 96.94325077 0.01351041 108.8108325 -0.01401484 C119.02183046 -0.03674497 129.23269952 -0.03988686 139.44371462 -0.02682149 C145.53279436 -0.0190485 151.62167255 -0.0179262 157.71073914 -0.03450394 C163.43687111 -0.04900616 169.1624522 -0.03882161 174.88852501 -0.01003265 C176.98303503 -0.00345258 179.07759185 -0.00526639 181.1720829 -0.01634598 C194.34962019 -0.07959736 206.84150344 0.2002166 217.01367188 9.85009766 C225.92277058 20.33139025 227.40539103 31.32003321 226.72314453 44.56347656 C225.91536099 53.8042604 220.33976793 60.69278586 213.54101562 66.64697266 C206.34844308 71.17870912 200.20544691 72.79593864 191.75709534 72.80760193 C190.39387702 72.81523366 190.39387702 72.81523366 189.00311893 72.82301956 C185.94487055 72.83876856 182.88664583 72.84727569 179.82836914 72.85571289 C177.64052683 72.86524961 175.45268603 72.87514069 173.2648468 72.88536072 C166.06655676 72.91677478 158.86825507 72.93701964 151.66992188 72.95556641 C150.44510817 72.95886373 149.22029447 72.96216105 147.9583652 72.96555829 C136.40506993 72.99634672 124.85177207 73.02305336 113.29844761 73.03997707 C110.62254897 73.04392635 107.94665041 73.04792937 105.27075195 73.05200195 C104.60569847 73.05301031 103.94064499 73.05401868 103.25543838 73.05505759 C92.49685484 73.07204193 81.73850222 73.11312543 70.98003126 73.16402494 C59.92383523 73.21590058 48.86776377 73.2444508 37.81144851 73.25217396 C31.60811231 73.25712461 25.40518618 73.27215009 19.20196724 73.31191826 C13.36024595 73.34887374 7.51916741 73.35716462 1.677351 73.34391212 C-0.46072591 73.34396593 -2.59883194 73.3542031 -4.73680115 73.37566376 C-18.5576879 73.50691917 -28.54452727 72.85356052 -39.39648438 63.39697266 C-47.76786397 54.22734415 -49.16590589 43.76833424 -48.92773438 31.89697266 C-48.39818765 22.7358144 -44.33509531 15.02424187 -37.77148438 8.58447266 C-25.79020638 -0.06179568 -14.1914304 -0.07507085 0 0 Z " fill="#8AF56D" transform="translate(426.458984375,557.35302734375)"/>
<path d="M0 0 C0.33 0.99 0.66 1.98 1 3 C0.34 3.66 -0.32 4.32 -1 5 C-1.24212873 6.98128508 -1.24212873 6.98128508 -1.125 9.125 C-1.08375 10.40375 -1.0425 11.6825 -1 13 C-1.99 13.495 -1.99 13.495 -3 14 C-3 13.34 -3 12.68 -3 12 C-5.39719432 11.32041397 -5.39719432 11.32041397 -8 11 C-8.66 11.66 -9.32 12.32 -10 13 C-10.99 13 -11.98 13 -13 13 C-14.24674659 9.25976024 -13.76679965 6.83399823 -13 3 C-11 1 -11 1 -8.90625 0.83984375 C-7.71515625 0.88818359 -7.71515625 0.88818359 -6.5 0.9375 C-3.11792042 1.1199046 -3.11792042 1.1199046 0 0 Z " fill="#6641A8" transform="translate(95,465)"/>
<path d="M0 0 C0.99 0.33 1.98 0.66 3 1 C2.01 2.485 2.01 2.485 1 4 C1.04778603 6.00398446 1.04778603 6.00398446 1.5 8.0625 C1.7475 10.0115625 1.7475 10.0115625 2 12 C1.34 12.66 0.68 13.32 0 14 C-0.309375 14.680625 -0.61875 15.36125 -0.9375 16.0625 C-2 18 -2 18 -5 19 C-5.33 18.01 -5.66 17.02 -6 16 C-7.65 16.33 -9.3 16.66 -11 17 C-11.33 17.99 -11.66 18.98 -12 20 C-12.66 19.67 -13.32 19.34 -14 19 C-15.28571429 12.57142857 -15.28571429 12.57142857 -14 10 C-12.02 10.495 -12.02 10.495 -10 11 C-10.66 12.32 -11.32 13.64 -12 15 C-11.38125 14.814375 -10.7625 14.62875 -10.125 14.4375 C-8 14 -8 14 -6 15 C-5.79503906 14.37351563 -5.59007812 13.74703125 -5.37890625 13.1015625 C-5.10949219 12.28429687 -4.84007812 11.46703125 -4.5625 10.625 C-4.29566406 9.81289062 -4.02882813 9.00078125 -3.75390625 8.1640625 C-3 6 -3 6 -2 4 C-2.66 4 -3.32 4 -4 4 C-4 3.34 -4 2.68 -4 2 C-3.01 2 -2.02 2 -1 2 C-0.67 1.34 -0.34 0.68 0 0 Z " fill="#6640A8" transform="translate(464,140)"/>
<path d="M0 0 C0.66 0 1.32 0 2 0 C2.66 0.66 3.32 1.32 4 2 C6.00636471 1.70740515 8.00714063 1.37366113 10 1 C10.66 1.33 11.32 1.66 12 2 C11.835 2.7425 11.67 3.485 11.5 4.25 C10.88074304 7.19006578 10.88074304 7.19006578 11 11 C9.375 11.75 9.375 11.75 7 12 C1.38911407 9.13954835 1.38911407 9.13954835 0.125 5.4375 C0.03214874 3.62690037 0 1.81297886 0 0 Z " fill="#6641A8" transform="translate(474,128)"/>
<path d="M0 0 C0.7425 0.391875 1.485 0.78375 2.25 1.1875 C2.064375 2.095 1.87875 3.0025 1.6875 3.9375 C1.06366385 7.0312466 1.06366385 7.0312466 1.8125 9.375 C1.956875 9.973125 2.10125 10.57125 2.25 11.1875 C1.26 12.6725 1.26 12.6725 0.25 14.1875 C0.86875 13.98125 1.4875 13.775 2.125 13.5625 C3.176875 13.376875 3.176875 13.376875 4.25 13.1875 C4.91 13.8475 5.57 14.5075 6.25 15.1875 C4.27 15.1875 2.29 15.1875 0.25 15.1875 C0.25 15.8475 0.25 16.5075 0.25 17.1875 C1.57 17.1875 2.89 17.1875 4.25 17.1875 C4.25 17.8475 4.25 18.5075 4.25 19.1875 C2.27 18.8575 0.29 18.5275 -1.75 18.1875 C-2.4375 16.5625 -2.4375 16.5625 -2.75 14.1875 C-1.3125 10.9375 -1.3125 10.9375 0.25 8.1875 C-1.07 8.5175 -2.39 8.8475 -3.75 9.1875 C-3.75 8.5275 -3.75 7.8675 -3.75 7.1875 C-3.09 7.1875 -2.43 7.1875 -1.75 7.1875 C-2.08 6.1975 -2.41 5.2075 -2.75 4.1875 C-4.4 4.8475 -6.05 5.5075 -7.75 6.1875 C-7.37971996 3.50296973 -6.87340935 2.3197243 -5 0.3125 C-2.75 -0.8125 -2.75 -0.8125 0 0 Z " fill="#6640A7" transform="translate(175.75,376.8125)"/>
<path d="M0 0 C0.99 0.99 1.98 1.98 3 3 C2.34 4.32 1.68 5.64 1 7 C0.67 6.01 0.34 5.02 0 4 C-1.37830469 7.82862413 -0.64545242 11.05556855 0 15 C0 15.99 0 16.98 0 18 C-0.66 17.67 -1.32 17.34 -2 17 C-4.09821215 17.39938767 -4.09821215 17.39938767 -6 18 C-6.33 17.01 -6.66 16.02 -7 15 C-6.01 14.67 -5.02 14.34 -4 14 C-3.67 12.35 -3.34 10.7 -3 9 C-4.32 8.67 -5.64 8.34 -7 8 C-6.01 7.34 -5.02 6.68 -4 6 C-3.31246699 4.34183216 -2.64438717 2.67540664 -2 1 C-1.34 0.67 -0.68 0.34 0 0 Z " fill="#6640A7" transform="translate(599,21)"/>
<path d="M0 0 C-0.33 1.32 -0.66 2.64 -1 4 C0.98 4 2.96 4 5 4 C5.33 3.34 5.66 2.68 6 2 C6.66 2 7.32 2 8 2 C8 5.63 8 9.26 8 13 C7.34 13 6.68 13 6 13 C5.67 11.02 5.34 9.04 5 7 C3.68 6.67 2.36 6.34 1 6 C0.67 6.99 0.34 7.98 0 9 C-1.32 8.34 -2.64 7.68 -4 7 C-4 6.01 -4 5.02 -4 4 C-3.34 4 -2.68 4 -2 4 C-2 3.34 -2 2.68 -2 2 C-3.32 1.67 -4.64 1.34 -6 1 C-4 0 -4 0 0 0 Z " fill="#6640A7" transform="translate(198,366)"/>
<path d="M0 0 C0.99 0.33 1.98 0.66 3 1 C2.814375 2.093125 2.62875 3.18625 2.4375 4.3125 C1.7421932 7.93624133 1.7421932 7.93624133 3 11 C0.525 12.485 0.525 12.485 -2 14 C-2.66 13.34 -3.32 12.68 -4 12 C-2.68 11.67 -1.36 11.34 0 11 C0 10.01 0 9.02 0 8 C-0.721875 8.165 -1.44375 8.33 -2.1875 8.5 C-4.86427545 8.97587119 -7.28949487 9.077443 -10 9 C-10.33 8.34 -10.66 7.68 -11 7 C-10.34 7 -9.68 7 -9 7 C-8.34 5.68 -7.68 4.36 -7 3 C-6.67 4.32 -6.34 5.64 -6 7 C-5.01 6.67 -4.02 6.34 -3 6 C-2.01 6.33 -1.02 6.66 0 7 C0 4.69 0 2.38 0 0 Z " fill="#6640A7" transform="translate(308,277)"/>
<path d="M0 0 C1.32 0 2.64 0 4 0 C5 3 5 3 4.4375 6.0625 C4.293125 7.031875 4.14875 8.00125 4 9 C4.66 9.66 5.32 10.32 6 11 C4.02 11.99 4.02 11.99 2 13 C2 10.69 2 8.38 2 6 C-0.43717258 6.27034634 -0.43717258 6.27034634 -3 7 C-3.99 8.485 -3.99 8.485 -5 10 C-5.28875 9.360625 -5.5775 8.72125 -5.875 8.0625 C-6.82823451 5.84793921 -6.82823451 5.84793921 -9 5 C-7.10114904 3.10114904 -4.42752097 3.87632494 -1.91015625 3.8671875 C0 4 0 4 2 5 C1.34 3.35 0.68 1.7 0 0 Z " fill="#6640A7" transform="translate(570,46)"/>
<path d="M0 0 C1.98 0.495 1.98 0.495 4 1 C3.34 2.32 2.68 3.64 2 5 C2.61875 4.814375 3.2375 4.62875 3.875 4.4375 C6 4 6 4 8 5 C8 4.34 8 3.68 8 3 C8.99 3.33 9.98 3.66 11 4 C11.33 4.99 11.66 5.98 12 7 C11.34 7.66 10.68 8.32 10 9 C9.34 8.67 8.68 8.34 8 8 C8 7.34 8 6.68 8 6 C6.35 6.33 4.7 6.66 3 7 C2.34 8.98 1.68 10.96 1 13 C0.34 12.67 -0.32 12.34 -1 12 C-0.814375 10.906875 -0.62875 9.81375 -0.4375 8.6875 C0.2578068 5.06375867 0.2578068 5.06375867 -1 2 C-0.67 1.34 -0.34 0.68 0 0 Z " fill="#6640A7" transform="translate(162,406)"/>
<path d="M0 0 C0.99 0 1.98 0 3 0 C2.67 1.32 2.34 2.64 2 4 C2.556875 3.67 3.11375 3.34 3.6875 3 C6.30284522 1.8690399 8.1806646 1.84337026 11 2 C11 2.99 11 3.98 11 5 C9 6.6875 9 6.6875 7 8 C6.67 7.01 6.34 6.02 6 5 C5.34 5.66 4.68 6.32 4 7 C3.01 6.67 2.02 6.34 1 6 C-0.34187818 6.6492959 -1.67479497 7.31731862 -3 8 C-4.32 8 -5.64 8 -7 8 C-7 7.34 -7 6.68 -7 6 C-6.01 6 -5.02 6 -4 6 C-3.67 5.34 -3.34 4.68 -3 4 C-1.68 4 -0.36 4 1 4 C0.67 2.68 0.34 1.36 0 0 Z " fill="#6640A7" transform="translate(235,336)"/>
<path d="M0 0 C0.33 0.99 0.66 1.98 1 3 C0.34 3.66 -0.32 4.32 -1 5 C-1.64767793 7.57061311 -1.64767793 7.57061311 -2 10 C-0.35 10.33 1.3 10.66 3 11 C2.67 12.32 2.34 13.64 2 15 C1.67 14.01 1.34 13.02 1 12 C0.236875 12.165 -0.52625 12.33 -1.3125 12.5 C-4 13 -4 13 -7 13 C-7 11 -7 11 -5 9 C-4.28591666 7.01643517 -3.61382258 5.01684563 -3 3 C-4.32 3 -5.64 3 -7 3 C-6.67 2.34 -6.34 1.68 -6 1 C-2.9375 0.375 -2.9375 0.375 0 0 Z " fill="#6640A7" transform="translate(39,505)"/>
<path d="M0 0 C0.99 0.99 1.98 1.98 3 3 C1.70113304 6.89660087 0.6157294 8.04147991 -3 10 C-6.19187952 9.43326762 -9.04511188 8.31328361 -12 7 C-12 6.34 -12 5.68 -12 5 C-9.03 5.33 -6.06 5.66 -3 6 C-2.87625 5.195625 -2.7525 4.39125 -2.625 3.5625 C-2.41875 2.716875 -2.2125 1.87125 -2 1 C-1.34 0.67 -0.68 0.34 0 0 Z " fill="#6640A7" transform="translate(108,465)"/>
<path d="M0 0 C1.65 0 3.3 0 5 0 C5 0.66 5 1.32 5 2 C3.68 2 2.36 2 1 2 C1.34786708 3.97536745 1.34786708 3.97536745 2 6 C2.66 6.33 3.32 6.66 4 7 C2.10511048 8.89488952 -0.57139146 8.18019112 -3.08984375 8.23046875 C-5 8 -5 8 -7 6 C-6.34 6 -5.68 6 -5 6 C-4.67 5.01 -4.34 4.02 -4 3 C-3.01 2.67 -2.02 2.34 -1 2 C-0.67 1.34 -0.34 0.68 0 0 Z " fill="#6640A7" transform="translate(235,326)"/>
<path d="M0 0 C1.98 0.99 1.98 0.99 4 2 C4.33 1.34 4.66 0.68 5 0 C5.99 0 6.98 0 8 0 C8.33 0.99 8.66 1.98 9 3 C8.01 4.485 8.01 4.485 7 6 C6.83286431 8.62531524 6.83286431 8.62531524 7 11 C6.34 11 5.68 11 5 11 C4.67 11.66 4.34 12.32 4 13 C2.90341064 9.71023192 3.20046862 8.28696233 4 5 C2.68 4.67 1.36 4.34 0 4 C0 2.68 0 1.36 0 0 Z " fill="#6640A7" transform="translate(78,482)"/>
<path d="M0 0 C1.98 0.495 1.98 0.495 4 1 C3.34 2.32 2.68 3.64 2 5 C2.61875 4.814375 3.2375 4.62875 3.875 4.4375 C6 4 6 4 8 5 C8 4.34 8 3.68 8 3 C8.66 3 9.32 3 10 3 C10.33 4.32 10.66 5.64 11 7 C10.01 7.33 9.02 7.66 8 8 C8 7.34 8 6.68 8 6 C6.35 6.33 4.7 6.66 3 7 C2.67 7.99 2.34 8.98 2 10 C1.34 9.67 0.68 9.34 0 9 C-1.28571429 2.57142857 -1.28571429 2.57142857 0 0 Z " fill="#6640A7" transform="translate(290,294)"/>
<path d="M0 0 C0.99 0 1.98 0 3 0 C2.67 1.32 2.34 2.64 2 4 C2.66 4.33 3.32 4.66 4 5 C3.38125 5.04125 2.7625 5.0825 2.125 5.125 C1.42375 5.41375 0.7225 5.7025 0 6 C-1.3045656 8.99615946 -1.3045656 8.99615946 -2 12 C-2.99 11.34 -3.98 10.68 -5 10 C-5.99 9.67 -6.98 9.34 -8 9 C-7.01 8.34 -6.02 7.68 -5 7 C-5 6.01 -5 5.02 -5 4 C-4.34 4 -3.68 4 -3 4 C-3 4.66 -3 5.32 -3 6 C-2.34 6 -1.68 6 -1 6 C-1 5.34 -1 4.68 -1 4 C-0.34 4 0.32 4 1 4 C0.67 2.68 0.34 1.36 0 0 Z " fill="#6640A7" transform="translate(323,272)"/>
<path d="M0 0 C-0.99 1.485 -0.99 1.485 -2 3 C-5.2578125 3.29296875 -5.2578125 3.29296875 -9.125 3.1875 C-11.04699219 3.14689453 -11.04699219 3.14689453 -13.0078125 3.10546875 C-13.99523437 3.07066406 -14.98265625 3.03585938 -16 3 C-16 2.34 -16 1.68 -16 1 C-14.7625 0.67 -13.525 0.34 -12.25 0 C-11.55390625 -0.185625 -10.8578125 -0.37125 -10.140625 -0.5625 C-6.5411679 -1.29815547 -3.47661015 -0.99331719 0 0 Z " fill="#6640A7" transform="translate(428,183)"/>
<path d="M0 0 C1.32 0 2.64 0 4 0 C3.34 1.98 2.68 3.96 2 6 C3.32 6 4.64 6 6 6 C5.67 6.66 5.34 7.32 5 8 C4.195625 8.144375 3.39125 8.28875 2.5625 8.4375 C-0.34440658 8.76502717 -0.34440658 8.76502717 -2 12 C-2.99 12 -3.98 12 -5 12 C-5 11.01 -5 10.02 -5 9 C-4.01 9 -3.02 9 -2 9 C-2 8.01 -2 7.02 -2 6 C-1.34 5.34 -0.68 4.68 0 4 C0 2.68 0 1.36 0 0 Z " fill="#6640A7" transform="translate(18,526)"/>
<path d="M0 0 C1.66628955 0.03545297 3.33409803 0.05048188 5 0 C4.67 0.66 4.34 1.32 4 2 C0.9375 2.625 0.9375 2.625 -2 3 C-2 3.99 -2 4.98 -2 6 C-2.99 6 -3.98 6 -5 6 C-4.67 4.68 -4.34 3.36 -4 2 C-5.32 2.99 -6.64 3.98 -8 5 C-8.33 3.35 -8.66 1.7 -9 0 C-5.94077605 -1.52961198 -3.32521452 -0.50723611 0 0 Z " fill="#6640A7" transform="translate(127,434)"/>
<path d="M0 0 C0 0.66 0 1.32 0 2 C-0.99 2.33 -1.98 2.66 -3 3 C-4.22969878 6.51190809 -4.22969878 6.51190809 -5 10 C-5.66 9.34 -6.32 8.68 -7 8 C-6.625 5.375 -6.625 5.375 -6 3 C-7.32 3.33 -8.64 3.66 -10 4 C-10 2.68 -10 1.36 -10 0 C-6.7169902 -1.6415049 -3.57454967 -0.51888624 0 0 Z " fill="#6640A7" transform="translate(128,450)"/>
<path d="M0 0 C0.66 0 1.32 0 2 0 C2.99 2.64 3.98 5.28 5 8 C3.35 9.32 1.7 10.64 0 12 C-0.66 11.01 -1.32 10.02 -2 9 C-1.34 8.34 -0.68 7.68 0 7 C-0.28674418 4.99279077 -0.61866701 2.9914056 -1 1 C-0.67 0.67 -0.34 0.34 0 0 Z " fill="#6640A7" transform="translate(234,349)"/>
<path d="M0 0 C1.22589844 0.15275391 1.22589844 0.15275391 2.4765625 0.30859375 C3.41628906 0.43427734 3.41628906 0.43427734 4.375 0.5625 C4.045 1.5525 3.715 2.5425 3.375 3.5625 C0.8125 4.75 0.8125 4.75 -1.625 5.5625 C-1.625 4.9025 -1.625 4.2425 -1.625 3.5625 C-2.285 3.5625 -2.945 3.5625 -3.625 3.5625 C-3.625 2.9025 -3.625 2.2425 -3.625 1.5625 C-4.615 1.2325 -5.605 0.9025 -6.625 0.5625 C-4.10446405 -0.69776798 -2.7707902 -0.35624445 0 0 Z " fill="#6640A8" transform="translate(134.625,442.4375)"/>
<path d="M0 0 C0.66 0 1.32 0 2 0 C1.67 1.98 1.34 3.96 1 6 C1.99 6 2.98 6 4 6 C3.67 6.66 3.34 7.32 3 8 C1.68 8 0.36 8 -1 8 C-2.7511573 9.4166747 -2.7511573 9.4166747 -4 11 C-4.33 10.01 -4.66 9.02 -5 8 C-4.67 7.34 -4.34 6.68 -4 6 C-3.34 6 -2.68 6 -2 6 C-1.855625 5.195625 -1.71125 4.39125 -1.5625 3.5625 C-1 1 -1 1 0 0 Z " fill="#6640A7" transform="translate(180,398)"/>
<path d="M0 0 C0.391875 0.495 0.78375 0.99 1.1875 1.5 C3.55091715 3.45593143 5.01435003 3.24207973 8 3 C6.10827237 5.41720753 5.04144125 5.98963969 2 6.75 C-1 7 -1 7 -4 6 C-4 4.68 -4 3.36 -4 2 C-3.34 2 -2.68 2 -2 2 C-2 2.66 -2 3.32 -2 4 C-1.34 4 -0.68 4 0 4 C0 2.68 0 1.36 0 0 Z " fill="#6640A7" transform="translate(530,88)"/>
<path d="M0 0 C6.0546875 -0.1953125 6.0546875 -0.1953125 8 0 C8.66 0.66 9.32 1.32 10 2 C8.71034824 3.37562854 7.37310707 4.70766393 6 6 C5.34 6 4.68 6 4 6 C3.67 5.01 3.34 4.02 3 3 C2.01 3.33 1.02 3.66 0 4 C0 2.68 0 1.36 0 0 Z " fill="#6640A7" transform="translate(142,418)"/>
<path d="M0 0 C2.97 0 5.94 0 9 0 C9.33 0.99 9.66 1.98 10 3 C6.25 4.125 6.25 4.125 4 3 C4 3.66 4 4.32 4 5 C3.34 5 2.68 5 2 5 C1.34 3.35 0.68 1.7 0 0 Z " fill="#6640A8" transform="translate(604,14)"/>
<path d="M0 0 C2.35953094 2.35953094 2.49141413 3.77895617 3 7 C2.01 7 1.02 7 0 7 C-2.00309329 7.31421071 -4.00371336 7.6451046 -6 8 C-6 6.68 -6 5.36 -6 4 C-4.35 3.67 -2.7 3.34 -1 3 C-0.67 2.01 -0.34 1.02 0 0 Z " fill="#6640A7" transform="translate(116,456)"/>
<path d="M0 0 C0.66 0 1.32 0 2 0 C2.66 0.66 3.32 1.32 4 2 C4.66 2 5.32 2 6 2 C6.33 1.34 6.66 0.68 7 0 C7.625 1.875 7.625 1.875 8 4 C7.34 4.66 6.68 5.32 6 6 C6 5.34 6 4.68 6 4 C4.35 5.32 2.7 6.64 1 8 C0.40267181 5.23735711 0 2.83967231 0 0 Z " fill="#6640A7" transform="translate(282,304)"/>
<path d="M0 0 C4.29 0 8.58 0 13 0 C11.515 1.485 11.515 1.485 10 3 C9.34 3 8.68 3 8 3 C8 2.34 8 1.68 8 1 C7.34 1 6.68 1 6 1 C6 1.66 6 2.32 6 3 C4.68 3.33 3.36 3.66 2 4 C1.34 2.68 0.68 1.36 0 0 Z " fill="#6640A7" transform="translate(336,259)"/>
<path d="M0 0 C0.33 0.99 0.66 1.98 1 3 C2.32 2.67 3.64 2.34 5 2 C5.33 2.66 5.66 3.32 6 4 C5.01 4 4.02 4 3 4 C3.33 5.32 3.66 6.64 4 8 C3.01 8 2.02 8 1 8 C1 7.34 1 6.68 1 6 C-0.32 5.67 -1.64 5.34 -3 5 C-2.01 3.35 -1.02 1.7 0 0 Z " fill="#6640A7" transform="translate(431,164)"/>
<path d="M0 0 C0.66 0 1.32 0 2 0 C2 1.32 2 2.64 2 4 C3.98 3.34 5.96 2.68 8 2 C8 2.99 8 3.98 8 5 C7.195625 5.12375 6.39125 5.2475 5.5625 5.375 C4.2940625 5.684375 4.2940625 5.684375 3 6 C2.67 6.66 2.34 7.32 2 8 C1.01 7.67 0.02 7.34 -1 7 C-0.67 4.69 -0.34 2.38 0 0 Z " fill="#6640A7" transform="translate(26,520)"/>
<path d="M0 0 C0.99 0.33 1.98 0.66 3 1 C2.47731534 3.76276177 1.89130413 6.3260876 1 9 C-0.32 8.67 -1.64 8.34 -3 8 C-2.34 7.34 -1.68 6.68 -1 6 C-1.32041397 3.39719432 -1.32041397 3.39719432 -2 1 C-1.34 0.67 -0.68 0.34 0 0 Z " fill="#6640A7" transform="translate(51,505)"/>
<path d="M0 0 C1.32 0 2.64 0 4 0 C4.33 1.32 4.66 2.64 5 4 C4.01 4.33 3.02 4.66 2 5 C2 5.99 2 6.98 2 8 C0.68 7.67 -0.64 7.34 -2 7 C-1.34 6.34 -0.68 5.68 0 5 C-0.33 4.01 -0.66 3.02 -1 2 C-0.67 1.34 -0.34 0.68 0 0 Z " fill="#6640A7" transform="translate(114,442)"/>
<path d="M0 0 C1.093125 0.185625 2.18625 0.37125 3.3125 0.5625 C6.93624133 1.2578068 6.93624133 1.2578068 10 0 C10 0.99 10 1.98 10 3 C9.34 3.66 8.68 4.32 8 5 C8 5.66 8 6.32 8 7 C7.01 6.67 6.02 6.34 5 6 C5.33 5.01 5.66 4.02 6 3 C3.69 3 1.38 3 -1 3 C-0.67 2.01 -0.34 1.02 0 0 Z " fill="#6640A7" transform="translate(150,409)"/>
<path d="M0 0 C1.32 0.66 2.64 1.32 4 2 C3.67 2.99 3.34 3.98 3 5 C4.65 4.67 6.3 4.34 8 4 C8 4.99 8 5.98 8 7 C7.236875 6.979375 6.47375 6.95875 5.6875 6.9375 C2.89814214 6.87057159 2.89814214 6.87057159 0 8 C0 6.68 0 5.36 0 4 C0.66 4 1.32 4 2 4 C2 3.34 2 2.68 2 2 C1.01 1.67 0.02 1.34 -1 1 C-0.67 0.67 -0.34 0.34 0 0 Z " fill="#6640A7" transform="translate(502,110)"/>
<path d="M0 0 C1.125 1.75 1.125 1.75 2 4 C1.125 6.25 1.125 6.25 0 8 C1.32 8 2.64 8 4 8 C3.67 8.66 3.34 9.32 3 10 C0.67843403 10.40729228 -1.6568787 10.74438677 -4 11 C-4 10.01 -4 9.02 -4 8 C-3.01 8 -2.02 8 -1 8 C-1.20625 7.4225 -1.4125 6.845 -1.625 6.25 C-2.08661261 3.48032433 -1.42944945 2.35438733 0 0 Z " fill="#6640A7" transform="translate(496,104)"/>
<path d="M0 0 C0.66 0.33 1.32 0.66 2 1 C2.625 4.0625 2.625 4.0625 3 7 C2.01 7 1.02 7 0 7 C0 6.34 0 5.68 0 5 C-1.65 5.33 -3.3 5.66 -5 6 C-5.33 5.01 -5.66 4.02 -6 3 C-5.34 2.34 -4.68 1.68 -4 1 C-4 1.66 -4 2.32 -4 3 C-2.68 2.67 -1.36 2.34 0 2 C0 1.34 0 0.68 0 0 Z " fill="#6640A7" transform="translate(532,81)"/>
<path d="M0 0 C1.4540625 0.61875 1.4540625 0.61875 2.9375 1.25 C3.2675 2.24 3.5975 3.23 3.9375 4.25 C2.761875 4.2190625 2.761875 4.2190625 1.5625 4.1875 C-1.04364961 4.06315937 -1.04364961 4.06315937 -3.0625 5.25 C-3.7225 4.92 -4.3825 4.59 -5.0625 4.25 C-5.0625 2.93 -5.0625 1.61 -5.0625 0.25 C-3.0625 -0.75 -3.0625 -0.75 0 0 Z " fill="#6640A7" transform="translate(567.0625,57.75)"/>
<path d="M0 0 C0.33 0.66 0.66 1.32 1 2 C3.01669827 3.13350534 3.01669827 3.13350534 5 4 C4.01 4.66 3.02 5.32 2 6 C2.33 6.66 2.66 7.32 3 8 C1.68 8.33 0.36 8.66 -1 9 C-1 8.01 -1 7.02 -1 6 C-1.0309375 4.700625 -1.0309375 4.700625 -1.0625 3.375 C-1 1 -1 1 0 0 Z " fill="#6640A7" transform="translate(43,505)"/>
<path d="M0 0 C0 0.99 0 1.98 0 3 C0.66 3 1.32 3 2 3 C2 3.99 2 4.98 2 6 C0.68 5.67 -0.64 5.34 -2 5 C-2.33 6.32 -2.66 7.64 -3 9 C-4.125 5.25 -4.125 5.25 -3 3 C-3.66 3 -4.32 3 -5 3 C-5 2.34 -5 1.68 -5 1 C-2 0 -2 0 0 0 Z " fill="#6640A7" transform="translate(74,477)"/>
<path d="M0 0 C0.33 0.99 0.66 1.98 1 3 C1.66 3 2.32 3 3 3 C3 2.34 3 1.68 3 1 C4.65 1.33 6.3 1.66 8 2 C7.34 3.32 6.68 4.64 6 6 C5.01 6 4.02 6 3 6 C3 5.34 3 4.68 3 4 C2.01 4.33 1.02 4.66 0 5 C-0.33 4.01 -0.66 3.02 -1 2 C-0.67 1.34 -0.34 0.68 0 0 Z " fill="#6640A7" transform="translate(143,424)"/>
<path d="M0 0 C0.33 1.32 0.66 2.64 1 4 C2.32 3.34 3.64 2.68 5 2 C5.33 2.99 5.66 3.98 6 5 C2.92677456 5.91058531 0.19902639 6.08886184 -3 6 C-3.33 5.34 -3.66 4.68 -4 4 C-3.34 4 -2.68 4 -2 4 C-1.34 2.68 -0.68 1.36 0 0 Z " fill="#6640A7" transform="translate(197,376)"/>
<path d="M0 0 C1.11393093 3.34179279 0.75376997 4.64991123 0 8 C0 8.99 0 9.98 0 11 C-0.66 11 -1.32 11 -2 11 C-2.66 10.34 -3.32 9.68 -4 9 C-4.66 9 -5.32 9 -6 9 C-6 8.34 -6 7.68 -6 7 C-5.01 6.67 -4.02 6.34 -3 6 C-2.87625 5.195625 -2.7525 4.39125 -2.625 3.5625 C-2.41875 2.716875 -2.2125 1.87125 -2 1 C-1.34 0.67 -0.68 0.34 0 0 Z " fill="#6640A7" transform="translate(262,309)"/>
<path d="M0 0 C0.66 0 1.32 0 2 0 C1.42415568 2.38564077 0.77772405 4.66682784 0 7 C1.32 6.67 2.64 6.34 4 6 C3.01 6.99 2.02 7.98 1 9 C-0.32 8.34 -1.64 7.68 -3 7 C-2.67 6.01 -2.34 5.02 -2 4 C-2.66 4 -3.32 4 -4 4 C-4 3.34 -4 2.68 -4 2 C-3.01 2 -2.02 2 -1 2 C-0.67 1.34 -0.34 0.68 0 0 Z " fill="#6640A7" transform="translate(608,20)"/>
<path d="M0 0 C0.66 0 1.32 0 2 0 C2 0.99 2 1.98 2 3 C3.65 3.33 5.3 3.66 7 4 C6.67 4.66 6.34 5.32 6 6 C-0.0546875 6.1953125 -0.0546875 6.1953125 -2 6 C-2.66 5.34 -3.32 4.68 -4 4 C-3.01 3.67 -2.02 3.34 -1 3 C-0.67 2.01 -0.34 1.02 0 0 Z " fill="#6640A7" transform="translate(324,264)"/>
<path d="M0 0 C0.12375 0.639375 0.2475 1.27875 0.375 1.9375 C0.684375 2.9584375 0.684375 2.9584375 1 4 C1.66 4.33 2.32 4.66 3 5 C1.02 5.33 -0.96 5.66 -3 6 C-3 5.34 -3 4.68 -3 4 C-4.32 3.34 -5.64 2.68 -7 2 C-4.69 1.34 -2.38 0.68 0 0 Z " fill="#6640A7" transform="translate(499,117)"/>
<path d="M0 0 C0.66 0 1.32 0 2 0 C2 1.32 2 2.64 2 4 C3.32 4.33 4.64 4.66 6 5 C5.21625 5.12375 4.4325 5.2475 3.625 5.375 C0.85942178 5.79117993 0.85942178 5.79117993 -1 8 C-4 4.25 -4 4.25 -4 2 C-3.34 2 -2.68 2 -2 2 C-2 2.66 -2 3.32 -2 4 C-1.34 3.34 -0.68 2.68 0 2 C0 1.34 0 0.68 0 0 Z " fill="#6640A7" transform="translate(586,40)"/>
<path d="M0 0 C-0.33 1.65 -0.66 3.3 -1 5 C-1.99 4.67 -2.98 4.34 -4 4 C-4 3.34 -4 2.68 -4 2 C-5.98 2.99 -5.98 2.99 -8 4 C-8 2.68 -8 1.36 -8 0 C-4.94736336 -0.98120464 -3.05263664 -0.98120464 0 0 Z " fill="#6640A7" transform="translate(246,346)"/>
<path d="M0 0 C0.99 0.99 1.98 1.98 3 3 C1.86695008 6.39914975 0.87481525 7.05254451 -2 9 C-3.10102197 5.69693408 -2.95067299 4.28414305 -2 1 C-1.34 0.67 -0.68 0.34 0 0 Z " fill="#6640A7" transform="translate(452,161)"/>
<path d="M0 0 C0.99 0.99 1.98 1.98 3 3 C2.67 3.99 2.34 4.98 2 6 C0.35 6.33 -1.3 6.66 -3 7 C-2.625 4.0625 -2.625 4.0625 -2 1 C-1.34 0.67 -0.68 0.34 0 0 Z " fill="#6640A7" transform="translate(36,529)"/>
<path d="M0 0 C1 3 1 3 0.0625 5.1875 C-0.4634375 6.0846875 -0.4634375 6.0846875 -1 7 C-1.99 6.67 -2.98 6.34 -4 6 C-3.67 5.01 -3.34 4.02 -3 3 C-4.32 3 -5.64 3 -7 3 C-6.67 2.34 -6.34 1.68 -6 1 C-2.9375 0.375 -2.9375 0.375 0 0 Z " fill="#6640A7" transform="translate(79,489)"/>
<path d="M0 0 C0.33 0.66 0.66 1.32 1 2 C2.32 1.67 3.64 1.34 5 1 C4.67 2.65 4.34 4.3 4 6 C2.35 6 0.7 6 -1 6 C-0.67 4.02 -0.34 2.04 0 0 Z " fill="#6640A7" transform="translate(135,420)"/>
<path d="M0 0 C0.99 0.66 1.98 1.32 3 2 C2.01 2.495 2.01 2.495 1 3 C0.505 3.845625 0.01 4.69125 -0.5 5.5625 C-0.995 6.366875 -1.49 7.17125 -2 8 C-2.66 8 -3.32 8 -4 8 C-4.25 5.6875 -4.25 5.6875 -4 3 C-2 1.1875 -2 1.1875 0 0 Z " fill="#6640A8" transform="translate(445,169)"/>
<path d="M0 0 C1.65 0 3.3 0 5 0 C5.33 1.32 5.66 2.64 6 4 C5.01 4.66 4.02 5.32 3 6 C1.5 4.6875 1.5 4.6875 0 3 C0 2.01 0 1.02 0 0 Z " fill="#6640A7" transform="translate(420,165)"/>
<path d="M0 0 C0.66 0 1.32 0 2 0 C2 0.66 2 1.32 2 2 C3.65 2 5.3 2 7 2 C7.33 2.66 7.66 3.32 8 4 C7.21625 4.103125 6.4325 4.20625 5.625 4.3125 C2.66954819 4.77595022 2.66954819 4.77595022 1 8 C0 7 0 7 -0.0625 3.4375 C-0.041875 2.303125 -0.02125 1.16875 0 0 Z " fill="#6640A7" transform="translate(484,108)"/>
<path d="M0 0 C0.33 0.99 0.66 1.98 1 3 C1.66 3 2.32 3 3 3 C3 3.66 3 4.32 3 5 C3.66 5.33 4.32 5.66 5 6 C4.67 7.32 4.34 8.64 4 10 C2.05584605 8.05584605 0.44521352 6.33986951 -1 4 C-0.6875 1.75 -0.6875 1.75 0 0 Z " fill="#6640A7" transform="translate(93,447)"/>
<path d="M0 0 C0.99 0 1.98 0 3 0 C3 0.99 3 1.98 3 3 C4.32 2.67 5.64 2.34 7 2 C7.33 2.99 7.66 3.98 8 5 C6.68 5 5.36 5 4 5 C3.67 5.99 3.34 6.98 3 8 C2.34 7.67 1.68 7.34 1 7 C0.59270772 4.67843403 0.25561323 2.3431213 0 0 Z " fill="#6640A7" transform="translate(217,360)"/>
<path d="M0 0 C-0.3125 1.9375 -0.3125 1.9375 -1 4 C-1.99 4.33 -2.98 4.66 -4 5 C-4.66 4.67 -5.32 4.34 -6 4 C-6 3.34 -6 2.68 -6 2 C-6.66 1.67 -7.32 1.34 -8 1 C-5.29120665 -0.35439668 -2.99066732 -0.06501451 0 0 Z " fill="#6640A7" transform="translate(520,106)"/>
<path d="M0 0 C-0.33 1.65 -0.66 3.3 -1 5 C-1.99 5 -2.98 5 -4 5 C-4.66 4.34 -5.32 3.68 -6 3 C-6.66 3 -7.32 3 -8 3 C-8 2.34 -8 1.68 -8 1 C-4.93251126 -0.86240388 -3.40254489 -1.2151946 0 0 Z " fill="#6640A7" transform="translate(516,95)"/>
<path d="M0 0 C1.2065625 0.0309375 1.2065625 0.0309375 2.4375 0.0625 C2.7675 0.7225 3.0975 1.3825 3.4375 2.0625 C2.4475 3.3825 1.4575 4.7025 0.4375 6.0625 C0.004375 5.1034375 0.004375 5.1034375 -0.4375 4.125 C-1.39073451 1.91043921 -1.39073451 1.91043921 -3.5625 1.0625 C-2.5625 0.0625 -2.5625 0.0625 0 0 Z " fill="#6640A7" transform="translate(28.5625,529.9375)"/>
<path d="M0 0 C0.33 0.66 0.66 1.32 1 2 C2.32 1.67 3.64 1.34 5 1 C4.67 2.65 4.34 4.3 4 6 C2.68 6 1.36 6 0 6 C-1.125 2.25 -1.125 2.25 0 0 Z " fill="#6640A7" transform="translate(47,516)"/>
<path d="M0 0 C1.98 0.66 3.96 1.32 6 2 C4.71034824 3.37562854 3.37310707 4.70766393 2 6 C1.34 6 0.68 6 0 6 C0 4.02 0 2.04 0 0 Z " fill="#6640A7" transform="translate(26,512)"/>
<path d="M0 0 C0.99 0.33 1.98 0.66 3 1 C3.33 1.99 3.66 2.98 4 4 C3.67 4.66 3.34 5.32 3 6 C0.525 5.01 0.525 5.01 -2 4 C-1.34 2.68 -0.68 1.36 0 0 Z " fill="#6640A7" transform="translate(43,496)"/>
<path d="M0 0 C1.65 0 3.3 0 5 0 C5 1.32 5 2.64 5 4 C3.02 4.33 1.04 4.66 -1 5 C-0.67 3.35 -0.34 1.7 0 0 Z " fill="#6640A7" transform="translate(61,494)"/>
<path d="M0 0 C1.98 0.99 1.98 0.99 4 2 C4 3.32 4 4.64 4 6 C4.66 6 5.32 6 6 6 C6 6.99 6 7.98 6 9 C5.01 8.67 4.02 8.34 3 8 C2.3125 5.9375 2.3125 5.9375 2 4 C1.34 4 0.68 4 0 4 C0 2.68 0 1.36 0 0 Z " fill="#6640A7" transform="translate(94,458)"/>
<path d="M0 0 C1.32 0 2.64 0 4 0 C4.33 1.32 4.66 2.64 5 4 C3.02 4.99 3.02 4.99 1 6 C-0.0625 4.125 -0.0625 4.125 -1 2 C-0.67 1.34 -0.34 0.68 0 0 Z " fill="#6640A7" transform="translate(186,394)"/>
<path d="M0 0 C2.475 0.495 2.475 0.495 5 1 C5.33 1.99 5.66 2.98 6 4 C4.68 4.99 3.36 5.98 2 7 C1.34 4.69 0.68 2.38 0 0 Z " fill="#6640A7" transform="translate(437,156)"/>
<path d="M0 0 C1.65 0.33 3.3 0.66 5 1 C4.01 1.66 3.02 2.32 2 3 C1.27617533 5.05925139 1.27617533 5.05925139 1 7 C0.34 7 -0.32 7 -1 7 C-1.625 5.1875 -1.625 5.1875 -2 3 C-1.34 2.01 -0.68 1.02 0 0 Z " fill="#6640A7" transform="translate(463,132)"/>
<path d="M0 0 C2.875 -0.125 2.875 -0.125 6 0 C6.66 0.66 7.32 1.32 8 2 C6.71034824 3.37562854 5.37310707 4.70766393 4 6 C3.34 6 2.68 6 2 6 C2 5.01 2 4.02 2 3 C1.34 2.67 0.68 2.34 0 2 C0 1.34 0 0.68 0 0 Z " fill="#6640A7" transform="translate(480,122)"/>
<path d="M0 0 C1.32 0 2.64 0 4 0 C3.67 0.99 3.34 1.98 3 3 C3.66 3.66 4.32 4.32 5 5 C3.1875 5.6875 3.1875 5.6875 1 6 C-0.75 4.5625 -0.75 4.5625 -2 3 C-1.34 2.01 -0.68 1.02 0 0 Z " fill="#6640A7" transform="translate(535,68)"/>
<path d="M0 0 C-0.33 0.66 -0.66 1.32 -1 2 C-3.25 2.5625 -3.25 2.5625 -6 3 C-6.928125 3.185625 -7.85625 3.37125 -8.8125 3.5625 C-9.534375 3.706875 -10.25625 3.85125 -11 4 C-11 3.34 -11 2.68 -11 2 C-9.68 2 -8.36 2 -7 2 C-6.67 1.34 -6.34 0.68 -6 0 C-3 -1 -3 -1 0 0 Z " fill="#6640A7" transform="translate(67,502)"/>
<path d="M0 0 C1.2065625 0.0309375 1.2065625 0.0309375 2.4375 0.0625 C2.4375 1.0525 2.4375 2.0425 2.4375 3.0625 C0.4375 4.75 0.4375 4.75 -1.5625 6.0625 C-1.5625 4.7425 -1.5625 3.4225 -1.5625 2.0625 C-2.2225 1.7325 -2.8825 1.4025 -3.5625 1.0625 C-2.5625 0.0625 -2.5625 0.0625 0 0 Z " fill="#6640A7" transform="translate(123.5625,441.9375)"/>
<path d="M0 0 C0.99 0.33 1.98 0.66 3 1 C2.01 1.33 1.02 1.66 0 2 C0 2.66 0 3.32 0 4 C0.66 4.33 1.32 4.66 2 5 C2 5.99 2 6.98 2 8 C1.34 8 0.68 8 0 8 C0 7.34 0 6.68 0 6 C-0.99 5.67 -1.98 5.34 -3 5 C-2.625 3.0625 -2.625 3.0625 -2 1 C-1.34 0.67 -0.68 0.34 0 0 Z " fill="#6640A7" transform="translate(136,430)"/>
<path d="M0 0 C1.2065625 0.0309375 1.2065625 0.0309375 2.4375 0.0625 C2.7675 0.7225 3.0975 1.3825 3.4375 2.0625 C2.4475 3.5475 2.4475 3.5475 1.4375 5.0625 C0.4475 4.7325 -0.5425 4.4025 -1.5625 4.0625 C-1.5625 3.4025 -1.5625 2.7425 -1.5625 2.0625 C-2.2225 1.7325 -2.8825 1.4025 -3.5625 1.0625 C-2.5625 0.0625 -2.5625 0.0625 0 0 Z " fill="#6640A7" transform="translate(156.5625,417.9375)"/>
<path d="M0 0 C1.32 0 2.64 0 4 0 C4.33 0.99 4.66 1.98 5 3 C4.01 3.99 3.02 4.98 2 6 C1.01 5.34 0.02 4.68 -1 4 C-0.67 2.68 -0.34 1.36 0 0 Z " fill="#6640A7" transform="translate(250,330)"/>
<path d="M0 0 C1.2065625 0.0309375 1.2065625 0.0309375 2.4375 0.0625 C2.4375 3.0625 2.4375 3.0625 0.4375 6.0625 C0.004375 5.1034375 0.004375 5.1034375 -0.4375 4.125 C-1.39073451 1.91043921 -1.39073451 1.91043921 -3.5625 1.0625 C-2.5625 0.0625 -2.5625 0.0625 0 0 Z " fill="#6640A7" transform="translate(244.5625,329.9375)"/>
<path d="M0 0 C0.33 0.66 0.66 1.32 1 2 C3.01669827 3.13350534 3.01669827 3.13350534 5 4 C3.68 4.99 2.36 5.98 1 7 C0.34 6.67 -0.32 6.34 -1 6 C-1.042721 4.33388095 -1.04063832 2.66617115 -1 1 C-0.67 0.67 -0.34 0.34 0 0 Z " fill="#6640A7" transform="translate(283,289)"/>
<path d="M0 0 C1.32 0 2.64 0 4 0 C4.33 1.32 4.66 2.64 5 4 C3.35 4.66 1.7 5.32 0 6 C0 4.02 0 2.04 0 0 Z " fill="#6640A7" transform="translate(422,174)"/>
<path d="M0 0 C0.99 0.33 1.98 0.66 3 1 C2.01 1.495 2.01 1.495 1 2 C1 2.66 1 3.32 1 4 C2.65 4 4.3 4 6 4 C5.67 4.66 5.34 5.32 5 6 C3.02 6 1.04 6 -1 6 C-0.67 4.68 -0.34 3.36 0 2 C-0.66 1.67 -1.32 1.34 -2 1 C-1.34 0.67 -0.68 0.34 0 0 Z " fill="#6640A7" transform="translate(454,142)"/>
<path d="M0 0 C1.32 0 2.64 0 4 0 C4 0.66 4 1.32 4 2 C3.01 2.33 2.02 2.66 1 3 C1.33 4.65 1.66 6.3 2 8 C1.01 8.495 1.01 8.495 0 9 C0 8.01 0 7.02 0 6 C-0.66 5.67 -1.32 5.34 -2 5 C-1.125 1.125 -1.125 1.125 0 0 Z " fill="#6640A7" transform="translate(520,94)"/>
<path d="M0 0 C1.32 0 2.64 0 4 0 C4 1.98 4 3.96 4 6 C2.68 5.67 1.36 5.34 0 5 C0 3.35 0 1.7 0 0 Z " fill="#6640A7" transform="translate(102,452)"/>
<path d="M0 0 C0.99 0.33 1.98 0.66 3 1 C2.01 1.495 2.01 1.495 1 2 C1.33 2.66 1.66 3.32 2 4 C2.99 4.33 3.98 4.66 5 5 C5 5.66 5 6.32 5 7 C2.03 6.505 2.03 6.505 -1 6 C-0.67 4.68 -0.34 3.36 0 2 C-0.66 1.67 -1.32 1.34 -2 1 C-1.34 0.67 -0.68 0.34 0 0 Z " fill="#6640A7" transform="translate(166,398)"/>
<path d="M0 0 C0.12375 0.639375 0.2475 1.27875 0.375 1.9375 C0.684375 2.9584375 0.684375 2.9584375 1 4 C1.66 4.33 2.32 4.66 3 5 C2 6 2 6 -0.5625 6.0625 C-1.7690625 6.0315625 -1.7690625 6.0315625 -3 6 C-3.33 5.34 -3.66 4.68 -4 4 C-3.34 4 -2.68 4 -2 4 C-1.34 2.68 -0.68 1.36 0 0 Z " fill="#6640A7" transform="translate(221,352)"/>
<path d="M0 0 C0.99 0.33 1.98 0.66 3 1 C2.67 2.65 2.34 4.3 2 6 C0.68 5.34 -0.64 4.68 -2 4 C-2 3.01 -2 2.02 -2 1 C-1.34 0.67 -0.68 0.34 0 0 Z " fill="#6640A7" transform="translate(220,345)"/>
<path d="M0 0 C0.99 0.33 1.98 0.66 3 1 C3 2.32 3 3.64 3 5 C1.68 5.33 0.36 5.66 -1 6 C-1.33 4.35 -1.66 2.7 -2 1 C-1.34 0.67 -0.68 0.34 0 0 Z " fill="#6640A7" transform="translate(259,321)"/>
<path d="M0 0 C0.99 0.33 1.98 0.66 3 1 C3 2.32 3 3.64 3 5 C2.01 5.33 1.02 5.66 0 6 C-0.66 5.67 -1.32 5.34 -2 5 C-2 3.68 -2 2.36 -2 1 C-1.34 0.67 -0.68 0.34 0 0 Z " fill="#6640A7" transform="translate(284,297)"/>
<path d="M0 0 C1.32 0 2.64 0 4 0 C4.33 1.32 4.66 2.64 5 4 C3.35 4.33 1.7 4.66 0 5 C-0.33 4.01 -0.66 3.02 -1 2 C-0.67 1.34 -0.34 0.68 0 0 Z " fill="#6640A7" transform="translate(298,274)"/>
<path d="M0 0 C1.32 0 2.64 0 4 0 C4.33 0.99 4.66 1.98 5 3 C4.67 3.66 4.34 4.32 4 5 C2.35 4.67 0.7 4.34 -1 4 C-0.67 2.68 -0.34 1.36 0 0 Z " fill="#6640A7" transform="translate(474,122)"/>
<path d="M0 0 C1.98 0 3.96 0 6 0 C5.67 1.32 5.34 2.64 5 4 C3.35 3.67 1.7 3.34 0 3 C0 2.01 0 1.02 0 0 Z " fill="#6640A7" transform="translate(500,102)"/>
<path d="M0 0 C1.32 0.66 2.64 1.32 4 2 C3.34 2 2.68 2 2 2 C2.33 3.32 2.66 4.64 3 6 C1.02 6 -0.96 6 -3 6 C-2.67 5.01 -2.34 4.02 -2 3 C-1.01 3.33 -0.02 3.66 1 4 C0.67 2.68 0.34 1.36 0 0 Z " fill="#6640A7" transform="translate(568,38)"/>
<path d="M0 0 C1.32 0.66 2.64 1.32 4 2 C4 2.99 4 3.98 4 5 C3.01 5.33 2.02 5.66 1 6 C0.34 5.67 -0.32 5.34 -1 5 C-0.67 3.35 -0.34 1.7 0 0 Z " fill="#6640A7" transform="translate(586,33)"/>
<path d="M0 0 C0.99 0.33 1.98 0.66 3 1 C2.67 2.65 2.34 4.3 2 6 C0.68 5.34 -0.64 4.68 -2 4 C-2 3.01 -2 2.02 -2 1 C-1.34 0.67 -0.68 0.34 0 0 Z " fill="#6640A7" transform="translate(588,25)"/>
<path d="M0 0 C1.65 0 3.3 0 5 0 C5.33 1.98 5.66 3.96 6 6 C5.34 6 4.68 6 4 6 C3.67 5.01 3.34 4.02 3 3 C2.01 3 1.02 3 0 3 C0 2.01 0 1.02 0 0 Z " fill="#6640A7" transform="translate(212,368)"/>
<path d="M0 0 C0.33 0.66 0.66 1.32 1 2 C0.67 2.66 0.34 3.32 0 4 C0.99 4 1.98 4 3 4 C2.67 4.99 2.34 5.98 2 7 C1.67 6.34 1.34 5.68 1 5 C-0.65 5.33 -2.3 5.66 -4 6 C-4.33 5.34 -4.66 4.68 -5 4 C-4.01 3.67 -3.02 3.34 -2 3 C-1.34 2.01 -0.68 1.02 0 0 Z " fill="#6640A7" transform="translate(253,336)"/>
<path d="M0 0 C0.93423645 3.01031744 1.04449911 3.86650268 0 7 C-0.33 6.34 -0.66 5.68 -1 5 C-3.01669827 3.86649466 -3.01669827 3.86649466 -5 3 C-4.360625 2.690625 -3.72125 2.38125 -3.0625 2.0625 C-1.06389179 1.1654837 -1.06389179 1.1654837 0 0 Z " fill="#6640A7" transform="translate(261,328)"/>
<path d="M0 0 C1.32 0 2.64 0 4 0 C4.33 1.98 4.66 3.96 5 6 C4.01 6 3.02 6 2 6 C2 4.68 2 3.36 2 2 C1.34 2 0.68 2 0 2 C0 1.34 0 0.68 0 0 Z " fill="#6640A7" transform="translate(504,84)"/>
<path d="M0 0 C1.98 0 3.96 0 6 0 C6 1.32 6 2.64 6 4 C5.38125 3.814375 4.7625 3.62875 4.125 3.4375 C1.95839822 2.76313824 1.95839822 2.76313824 0 4 C0 2.68 0 1.36 0 0 Z " fill="#6640A7" transform="translate(518,86)"/>
<path d="M0 0 C1.98 0 3.96 0 6 0 C4.72485508 2.55028983 3.59658703 2.93081711 1 4 C0.01 4 -0.98 4 -2 4 C-1.34 2.68 -0.68 1.36 0 0 Z " fill="#6640A8" transform="translate(295,288)"/>
<path d="M0 0 C1.65 0 3.3 0 5 0 C5.33 0.99 5.66 1.98 6 3 C4.02 3.99 4.02 3.99 2 5 C1.34 3.35 0.68 1.7 0 0 Z " fill="#6640A7" transform="translate(616,14)"/>
<path d="M0 0 C2 0 4 0 6 0 C5.67 0.99 5.34 1.98 5 3 C3.35 3.33 1.7 3.66 0 4 C-0.33 3.01 -0.66 2.02 -1 1 C-0.67 0.67 -0.34 0.34 0 0 Z " fill="#6640A7" transform="translate(125,424)"/>
<path d="M0 0 C0.99 0 1.98 0 3 0 C2.67 1.32 2.34 2.64 2 4 C0.02 4 -1.96 4 -4 4 C-4 3.34 -4 2.68 -4 2 C-2.68 2 -1.36 2 0 2 C0 1.34 0 0.68 0 0 Z " fill="#6640A7" transform="translate(408,182)"/>
<path d="M0 0 C0.99 0.33 1.98 0.66 3 1 C2.34 2.32 1.68 3.64 1 5 C0.01 5 -0.98 5 -2 5 C-2 3.68 -2 2.36 -2 1 C-1.34 0.67 -0.68 0.34 0 0 Z " fill="#6640A7" transform="translate(56,513)"/>
<path d="M0 0 C0 0.99 0 1.98 0 3 C-0.99 3.33 -1.98 3.66 -3 4 C-4.66710346 5.49985609 -4.66710346 5.49985609 -6 7 C-6 5.68 -6 4.36 -6 3 C-2.78571429 0 -2.78571429 0 0 0 Z " fill="#6640A7" transform="translate(208,357)"/>
<path d="M0 0 C0.99 0.33 1.98 0.66 3 1 C1.515 3.475 1.515 3.475 0 6 C-0.66 4.68 -1.32 3.36 -2 2 C-1.34 1.34 -0.68 0.68 0 0 Z " fill="#6640A7" transform="translate(276,302)"/>
<path d="M0 0 C0 0.66 0 1.32 0 2 C-1.32 2 -2.64 2 -4 2 C-4 2.66 -4 3.32 -4 4 C-4.99 3.67 -5.98 3.34 -7 3 C-6.67 2.01 -6.34 1.02 -6 0 C-3.42525708 -0.99667468 -2.51072708 -1.25536354 0 0 Z " fill="#6640A7" transform="translate(308,294)"/>
<path d="M0 0 C0.66 0 1.32 0 2 0 C2 1.98 2 3.96 2 6 C1.01 6 0.02 6 -1 6 C-0.67 4.02 -0.34 2.04 0 0 Z " fill="#6640A7" transform="translate(468,124)"/>
</svg>
